<svg width="33" height="27" viewBox="0 0 33 27" fill="none" xmlns="http://www.w3.org/2000/svg">
<mask id="path-1-inside-1_1106_14174" fill="white">
<path fill-rule="evenodd" clip-rule="evenodd" d="M0.5446 0.480546L16.7528 26.9609L32.9609 0.480549L0.5446 0.480546ZM5.39172 2.6276L16.8581 21.9511L28.3244 2.62761L5.39172 2.6276Z"/>
</mask>
<path fill-rule="evenodd" clip-rule="evenodd" d="M0.5446 0.480546L16.7528 26.9609L32.9609 0.480549L0.5446 0.480546ZM5.39172 2.6276L16.8581 21.9511L28.3244 2.62761L5.39172 2.6276Z" fill="black"/>
<path d="M16.7528 26.9609L13.3411 29.0491L16.7528 34.623L20.1644 29.0491L16.7528 26.9609ZM0.5446 0.480546L0.5446 -3.51945L-6.59354 -3.51945L-2.86705 2.56876L0.5446 0.480546ZM32.9609 0.480549L36.3726 2.56876L40.0991 -3.51945L32.9609 -3.51945L32.9609 0.480549ZM16.8581 21.9511L13.4181 23.9924L16.8581 29.7895L20.298 23.9924L16.8581 21.9511ZM5.39172 2.6276L5.39172 -1.3724L-1.63304 -1.3724L1.95175 4.66884L5.39172 2.6276ZM28.3244 2.62761L31.7644 4.66884L35.3492 -1.37239L28.3244 -1.37239L28.3244 2.62761ZM20.1644 24.8727L3.95625 -1.60767L-2.86705 2.56876L13.3411 29.0491L20.1644 24.8727ZM29.5493 -1.60766L13.3411 24.8727L20.1644 29.0491L36.3726 2.56876L29.5493 -1.60766ZM0.5446 4.48055L32.9609 4.48055L32.9609 -3.51945L0.5446 -3.51945L0.5446 4.48055ZM20.298 19.9099L8.83168 0.58637L1.95175 4.66884L13.4181 23.9924L20.298 19.9099ZM24.8844 0.586372L13.4181 19.9099L20.298 23.9924L31.7644 4.66884L24.8844 0.586372ZM5.39172 6.6276L28.3244 6.62761L28.3244 -1.37239L5.39172 -1.3724L5.39172 6.6276Z" fill="black" mask="url(#path-1-inside-1_1106_14174)"/>
</svg>
