<svg width="3722" height="3169" viewBox="0 0 3722 3169" fill="none" xmlns="http://www.w3.org/2000/svg">
<path d="M2808.93 2362.54C2808.93 2362.54 2859.04 2308.32 2920.41 2230.24C2932.36 2214.9 2944.77 2198.73 2957.36 2181.88C2959.41 2179.28 2961.37 2176.57 2963.33 2173.88C2969.29 2165.8 2975.33 2157.54 2981.33 2149.17C3067.51 2028.82 3151.52 1883.38 3140.75 1785.33C3123.12 1625.09 2698.72 1220.64 2461.53 1137.18C2399.01 1115.14 2311.81 1150.57 2225.96 1204.65C2225.39 1205 2224.81 1205.41 2224.23 1205.76C2161.29 1245.54 2099.2 1295.26 2048.33 1339.54C2043.8 1343.44 2039.36 1347.33 2035.08 1351.14C2026.41 1358.81 2018.23 1366.22 2010.41 1373.33C2004.37 1378.88 1998.53 1384.21 1993.04 1389.37C1953.63 1426.06 1929.09 1451.66 1929.09 1451.66L2014.52 1540.13L2058.09 1585.24L2138.83 1668.9L2163.27 1694.2L2808.93 2362.54Z" fill="white"/>
<path d="M3053.28 1995.13C3029.76 1989.81 3006.55 1983.72 2983.73 1976.46C2942.2 1963.65 2902.51 1946.4 2865.43 1925.02C2829.66 1903.84 2796.8 1878.14 2767.79 1848.49C2767.91 1847.7 2768.03 1846.9 2768.15 1846.1C2808.12 1880.26 2852.4 1905.86 2895.3 1905.86C2900.28 1905.86 2905.24 1905.52 2910.17 1904.81C2988.89 1893.34 3056.56 1817.54 3061 1735.82C3063.19 1695.68 3040.92 1649.6 3008.15 1604.34C3009.07 1603.92 3009.96 1603.49 3010.87 1603.05C3011.08 1602.96 3011.28 1602.86 3011.5 1602.77C3074.42 1679.76 3113.33 1746.13 3117.92 1787.88C3124.09 1844.25 3095.64 1918.85 3053.28 1995.13ZM2642.67 1726.22C2637.68 1722.18 2632.67 1718.2 2627.6 1714.25C2635.96 1713.49 2644.28 1712.46 2652.59 1711.33C2653.88 1714.96 2655.52 1718.49 2657.51 1721.89C2652.32 1722.7 2647.33 1724.16 2642.67 1726.22Z" fill="#B9AFBE"/>
<path d="M1961.1 1451.77L2808.32 2328.84C2876.59 2251.62 3135.39 1947.09 3117.92 1787.88C3110.47 1720 3012.23 1587.02 2867.63 1449.1C2719.38 1307.69 2560.84 1196.45 2453.9 1158.8C2330.58 1115.37 2070.04 1342.3 1961.1 1451.77ZM2809.32 2396L1897.16 1451.7L1912.5 1435.74C1916.22 1431.86 2005.04 1339.74 2116.71 1253.49C2271.39 1134.01 2389.96 1087.57 2469.15 1115.46C2716.76 1202.65 3145.1 1614.32 3163.59 1782.86C3185.86 1985.9 2840.54 2362.21 2825.82 2378.13L2809.32 2396Z" fill="#371A45"/>
<path d="M2815.01 1498.2L2681.09 1663.2C2669.13 1677.93 2668.59 1698.85 2679.84 1714.13C2721.05 1770.05 2822.95 1894.29 2906.87 1882.08C2976.52 1871.94 3034.32 1803.26 3038.07 1734.57C3042.24 1657.73 2932.53 1546.24 2875.61 1493.8C2857.92 1477.49 2830.19 1479.52 2815.01 1498.2Z" fill="white"/>
<path d="M2895.18 1859.93C2874.44 1859.93 2849.78 1849.81 2822.7 1830.74C2825.9 1831.6 2828.92 1832.05 2831.75 1832.05C2838.39 1832.05 2843.87 1829.53 2847.79 1823.88C2854.14 1814.7 2842.03 1784.25 2842.03 1784.25C2842.03 1784.25 2851.68 1786 2865.94 1786C2906.71 1786 2985.19 1771.7 2983.62 1661.37C2983.55 1657.22 2983.26 1652.97 2982.72 1648.64C3004.91 1682.57 3016.31 1711.65 3015.12 1733.32C3011.86 1793.3 2960.78 1851.01 2903.56 1859.34C2900.84 1859.73 2898.06 1859.93 2895.18 1859.93Z" fill="#B9AFBE"/>
<path d="M2832.85 1512.68L2698.93 1677.68C2693.56 1684.3 2693.31 1693.68 2698.33 1700.49C2776.97 1807.21 2853.64 1866.53 2903.56 1859.34C2960.77 1851.01 3011.85 1793.3 3015.12 1733.32C3017.72 1685.77 2959.75 1602.54 2860.05 1510.69C2856.21 1507.16 2851.24 1505.37 2846.04 1505.8C2840.84 1506.17 2836.15 1508.61 2832.85 1512.68ZM2895.29 1905.86C2806.39 1905.86 2711.55 1795.86 2661.35 1727.74C2643.91 1704.09 2644.69 1671.6 2663.25 1648.72L2797.19 1483.72C2808.39 1469.9 2824.99 1461.25 2842.72 1459.97C2860.47 1458.73 2878.11 1464.86 2891.19 1476.9C2971.08 1550.52 3065.39 1655.18 3061 1735.82C3056.56 1817.54 2988.89 1893.34 2910.17 1904.81C2905.24 1905.52 2900.28 1905.86 2895.29 1905.86Z" fill="#371A45"/>
<path d="M3006.99 1843.22C3002.43 1844.62 2999.78 1845.04 2996.36 1845.62C2993.16 1846.12 2989.99 1846.53 2986.87 1846.73C2980.59 1847.24 2974.42 1847.29 2968.31 1846.94C2956.12 1846.2 2944.11 1844.44 2932.68 1841.06C2909.68 1834.8 2888.56 1824.14 2869.8 1811C2860.56 1804.24 2851.47 1797.37 2843.2 1789.65C2834.55 1782.26 2827.04 1774.36 2819.2 1766.41C2811.5 1758.41 2804.06 1750.12 2797.03 1741.44C2790.02 1732.53 2783.38 1724.1 2777.75 1713.1C2776.38 1710.42 2777.44 1707.16 2780.11 1705.78C2782.62 1704.5 2785.64 1705.34 2787.15 1707.65L2787.54 1708.26C2792.68 1716.25 2800.27 1724.57 2807.56 1732.05C2815.04 1739.64 2822.95 1746.88 2831.11 1753.84C2839.28 1760.66 2847.59 1767.82 2856.19 1773.78C2864.55 1780.2 2873.48 1785.64 2882.4 1790.93C2900.44 1801.13 2919.79 1808.44 2939.36 1811.73C2949.11 1813.62 2958.95 1814 2968.52 1813.66C2973.31 1813.46 2978.04 1812.94 2982.59 1812.1C2984.9 1811.74 2987.08 1811.21 2989.23 1810.66C2991.16 1810.16 2993.82 1809.3 2994.43 1808.98C3003.4 1804.24 3014.52 1807.66 3019.27 1816.64C3024 1825.62 3020.58 1836.74 3011.6 1841.48C3010.58 1842.02 3009.52 1842.45 3008.46 1842.78L3006.99 1843.22Z" fill="#371A45"/>
<path d="M2220.25 1351.7C2235.59 1330.2 2251.31 1309.36 2267.41 1288.6C2283.52 1267.86 2299.99 1247.38 2317.09 1227.33C2334.2 1207.26 2351.67 1187.42 2370.37 1168.37C2389.11 1149.32 2408.45 1130.68 2430.81 1113.72C2440.92 1106.05 2455.35 1108.02 2463.01 1118.14C2470.69 1128.26 2468.71 1142.69 2458.59 1150.36C2458.16 1150.68 2457.72 1150.98 2457.28 1151.28L2457.09 1151.4C2436.88 1164.54 2417.31 1180.74 2398.29 1197.54C2379.23 1214.37 2360.88 1232.42 2342.83 1250.78C2324.76 1269.14 2307.16 1288.09 2289.85 1307.34C2272.6 1326.58 2255.49 1346.21 2239.11 1366.02L2239.03 1366.13C2234.85 1371.17 2227.39 1371.88 2222.35 1367.72C2217.53 1363.73 2216.69 1356.72 2220.25 1351.7Z" fill="#371A45"/>
<path d="M1887.67 1480.1L1759.48 1667.04L1544.9 1979.85L1532.9 1997.34C1485.38 2008.09 1438.58 2016.3 1392.42 2022.1C995.738 2072.04 648.831 1941.9 322.418 1663.37C197.303 1630.5 103.393 1590.38 56.4086 1527.97C12.5566 1469.69 9.71935 1391.92 60.782 1282.53C130.638 1132.89 286.07 1156 390.619 1186.85C446.941 1203.45 579.265 1244.05 657.098 1285.13C691.498 1303.28 728.258 1319.76 766.845 1334.65C1060.75 1448.72 1459.5 1475.37 1693.66 1480.45C1811.55 1483 1887.67 1480.1 1887.67 1480.1Z" fill="white"/>
<path d="M1231.07 2009.14C1108.72 2009.14 989.349 1990.94 872.376 1954.34C901.083 1935.8 938.242 1906.57 973.402 1863.34C983.549 1850.88 993.829 1836.81 1003.8 1821.06C1012.26 1822.57 1020.79 1824.01 1029.48 1825.36C1056.16 1829.5 1083.08 1832.08 1110.06 1833.26C1111.19 1833.65 1112.32 1834.02 1113.46 1834.4H1113.47C1153.39 1847.6 1194.99 1858.3 1237.1 1866.2C1273.1 1872.97 1309.9 1877.68 1346.94 1880.26C1356.07 1906.09 1366.06 1931.82 1376.88 1957.33C1376.91 1957.4 1376.94 1957.46 1376.96 1957.53C1371.54 1959.84 1368.66 1965.96 1370.51 1971.69C1373.6 1981.29 1376.87 1990.82 1380.32 2000.3C1330.07 2006.2 1280.32 2009.14 1231.07 2009.14ZM814.123 1934.53C651.229 1874.65 492.815 1778.58 337.324 1645.92L333.329 1642.5L328.252 1641.17C227.769 1614.77 157.603 1585.82 112.336 1551.26C151.161 1565.08 192.931 1574.77 233.675 1574.77C260.592 1574.77 287.061 1570.54 311.956 1560.48C379.023 1533.38 409.689 1454.74 421.192 1398.68C423.537 1407.72 426.48 1416.61 429.881 1425.24C431.789 1429.86 433.92 1434.38 435.929 1438.9C438.316 1443.29 440.784 1447.61 443.331 1451.86C444.608 1453.98 445.816 1456.13 447.143 1458.2L451.592 1464.13C454.532 1468.09 457.625 1471.9 460.675 1475.68C462.872 1478.38 466.203 1479.97 469.679 1479.97C471.049 1479.97 472.443 1479.73 473.797 1479.21C475.028 1478.73 476.131 1478.08 477.088 1477.28C540.58 1592.44 676.376 1747.46 955.296 1811.18C950.203 1818.42 944.869 1825.52 939.296 1832.45C889.749 1894.13 834.869 1924.54 814.123 1934.53Z" fill="#CDC6D0"/>
<path d="M1230.03 2055.26C906.695 2055.28 603.903 1932.53 311.493 1684.26C142.454 1639.25 54.4792 1586.48 17.7752 1508.22C-11.7914 1445.17 -4.52876 1368.17 39.9806 1272.8C98.0659 1148.34 218.238 1112.02 397.131 1164.81C481.159 1189.61 596.331 1227.09 667.842 1264.81C1085.22 1484.98 1878.8 1457.46 1886.78 1457.17C1899.56 1456.7 1910.12 1466.57 1910.6 1479.25C1911.08 1491.93 1901.2 1502.6 1888.52 1503.08C1855.5 1504.33 1074.71 1531.4 646.402 1305.45C593.217 1277.4 500.074 1243.1 384.127 1208.88C228.218 1162.88 129.265 1190.13 81.6139 1292.22C43.2219 1374.49 35.9459 1438.76 59.3752 1488.7C89.6339 1553.24 172.558 1600.25 328.251 1641.17L333.329 1642.5L337.323 1645.92C710.095 1963.98 1099.51 2071.6 1527.84 1974.92C1540.23 1972.13 1552.52 1979.9 1555.31 1992.26C1558.11 2004.65 1550.34 2016.94 1537.96 2019.73C1433.15 2043.4 1330.58 2055.26 1230.03 2055.26Z" fill="#371A45"/>
<path d="M813.83 1982.8C804.59 1982.8 795.87 1977.18 792.376 1968.04C787.843 1956.2 793.763 1942.94 805.563 1938.38C806.55 1938.01 877.123 1909.85 939.296 1832.45C1022.83 1728.48 1052.74 1589.18 1028.19 1418.45C1026.38 1405.89 1035.1 1394.25 1047.66 1392.45C1060.22 1390.64 1071.86 1399.36 1073.66 1411.9C1106.82 1642.41 1037.44 1784.62 973.403 1863.34C903.323 1949.49 825.323 1980.02 822.043 1981.28C819.336 1982.3 816.563 1982.8 813.83 1982.8Z" fill="#371A45"/>
<path d="M733.919 1321.33C708.639 1314.9 676.479 1285.77 668.372 1274.17C651.679 1250.26 628.309 1221.44 601.021 1183.9C554.256 1119.57 444.871 1038.01 394.089 1078.26C313.049 1142.5 448.545 1228.61 450.248 1249.22C451.949 1269.84 409.241 1371.9 470.407 1469.58L733.919 1321.33Z" fill="white"/>
<path d="M728.27 1343.6C715.577 1340.13 705.883 1334.85 696.83 1329.28C687.897 1323.6 679.79 1317.44 672.043 1310.77C668.177 1307.42 664.403 1303.98 660.67 1300.18C656.99 1296.42 653.15 1292.45 649.19 1286.82C644.175 1279.68 638.858 1272.48 633.434 1265.25L600.21 1221.42L583.659 1199.08C578.53 1192.02 573.471 1185.69 567.797 1179.21C545.217 1153.66 518.313 1130.56 489.545 1112.97C475.191 1104.28 460.102 1097 445.595 1093.2C431.026 1089.29 417.891 1089.77 410.478 1094.84C408.838 1095.77 405.991 1098.41 403.401 1100.66C401.207 1103.06 398.843 1105.37 397.327 1107.8C393.97 1112.61 392.245 1117.16 391.779 1122.06C390.621 1131.76 395.777 1145.18 404.663 1158.1C413.441 1171.14 425.041 1183.73 437.457 1196.42C443.69 1202.85 450.151 1209.16 457.027 1216.52C460.467 1220.33 463.91 1223.92 468.267 1230.44C469.191 1231.69 470.713 1234.52 471.838 1236.98C472.307 1237.78 473.306 1240.8 473.79 1243.02C474.065 1244.22 474.282 1245.44 474.445 1246.64C474.599 1247.82 474.507 1247.92 474.543 1248.62C474.561 1250.86 474.506 1253.12 474.374 1255.36C474.319 1256.65 474.203 1257.25 474.103 1257.96L473.787 1260.09C472.095 1271.36 469.886 1279.5 468.193 1288.34C466.373 1297.04 464.906 1305.5 463.585 1313.97C460.961 1330.89 459.933 1347.7 460.079 1364.42C460.209 1397.96 467.502 1430.49 480.146 1463.49L480.451 1464.28C482.735 1470.24 479.755 1476.92 473.798 1479.21C469.006 1481.04 463.739 1479.46 460.675 1475.68C457.626 1471.9 454.533 1468.09 451.593 1464.13L447.143 1458.2C445.817 1456.13 444.609 1453.98 443.331 1451.86C440.785 1447.61 438.317 1443.29 435.93 1438.9C433.921 1434.38 431.79 1429.86 429.882 1425.24C422.577 1406.7 417.393 1386.97 415.673 1367.09C413.738 1347.21 414.457 1327.26 416.566 1307.85C417.563 1298.14 419.155 1288.52 420.854 1279.22C422.491 1270.04 424.515 1260.33 425.558 1253.48L425.755 1252.21C425.823 1251.8 425.915 1251.26 425.846 1251.4L425.913 1251.26C425.919 1251.3 425.93 1251.28 425.941 1251.25C425.959 1251.2 425.981 1251.14 425.991 1251.54C426.013 1252.2 426.09 1252.85 426.221 1253.49C426.379 1254.62 427.263 1256.48 427.107 1256.28C427.175 1256.72 427.783 1257.44 427.321 1256.85C426.609 1255.72 423.905 1252.45 421.143 1249.54C415.57 1243.45 409.026 1236.84 402.566 1230.04C389.589 1216.36 376.446 1201.64 365.049 1184.04C359.387 1175.2 354.177 1165.53 350.295 1154.45C346.442 1143.46 344.074 1130.64 345.525 1117.29C346.859 1103.94 352.373 1091.01 359.705 1081C363.298 1075.77 367.45 1071.58 371.59 1067.37C375.922 1063.62 379.751 1059.96 385.906 1056.01C397.463 1048.48 410.99 1045.29 423.134 1044.74C435.411 1044.2 446.727 1046.02 457.218 1048.74C478.209 1054.33 496.349 1063.46 513.326 1073.66C547.075 1094.38 576.357 1119.64 602.362 1148.93C608.767 1156.24 615.142 1164.24 620.791 1172.01L636.955 1193.85L670.163 1237.65C675.737 1245.09 681.323 1252.62 686.83 1260.48C688.123 1262.38 690.59 1265.12 693.323 1267.86C696.03 1270.61 699.017 1273.36 702.083 1276.01C708.23 1281.29 714.75 1286.24 721.297 1290.38C727.777 1294.48 734.55 1297.7 739.577 1299.06L740.337 1299.28C752.577 1302.6 759.817 1315.21 756.483 1327.45C753.177 1339.69 740.55 1346.93 728.31 1343.61L728.27 1343.6Z" fill="#371A45"/>
<path d="M3114.17 3060.69C3047.66 3132.02 2926.37 3166.77 2823.05 3132.02C2675 3082.24 2613.65 2854.4 2613.65 2854.4C2110.73 2843.49 1992.08 2605.49 1992.08 2605.49L2149.9 2381.17L2320.81 2138.12C2394.9 2229.89 2484.61 2287.96 2575.34 2329.65C2738.17 2404.42 2904.49 2426.25 2990.46 2494.42C3047.09 2539.28 3088.21 2604.12 3116.29 2679.18C3145.29 2756.82 3160.29 2845.44 3163.96 2934.34C3165.97 2982.58 3146.56 3025.94 3114.17 3060.69Z" fill="white"/>
<path d="M3084.04 2661.37C3047.14 2645.42 3003.8 2639.81 2953.54 2639.81C2935.04 2639.81 2915.63 2640.57 2895.24 2641.85C2883.88 2642.57 2872.74 2642.92 2861.86 2642.92C2832.34 2642.92 2804.59 2640.41 2778.84 2636.25C2786.12 2624.16 2792.63 2611.69 2798.35 2598.85C2826.04 2603.6 2853.95 2606.84 2881.94 2608.61C2892.35 2609.29 2902.79 2609.37 2913.22 2609.76L2928.86 2610.24L2944.48 2609.89L2975.75 2609.13L3006.91 2606.69L3022.48 2605.45C3027.67 2604.96 3032.8 2604.1 3037.96 2603.45L3053.06 2601.38C3064.39 2619.86 3074.74 2639.9 3084.04 2661.37ZM2730.74 2626.1C2681.84 2613.36 2642.56 2595.53 2614.94 2580.44C2621.94 2576.37 2628.88 2572.12 2635.68 2567.52C2640.51 2564.38 2645.2 2560.94 2649.94 2557.46C2650.38 2557.13 2650.82 2556.78 2651.26 2556.45C2651.66 2556.62 2652.07 2556.8 2652.47 2556.98C2657.42 2559.24 2662.36 2561.18 2667.31 2563.16C2677.19 2567.17 2687.16 2570.62 2697.16 2574C2707.2 2577.17 2717.2 2580.5 2727.38 2583.1L2742.56 2587.26L2751.92 2589.42C2745.75 2602.1 2738.7 2614.33 2730.74 2626.1Z" fill="#CDC6D0"/>
<path d="M2908.79 3122.74C2881.95 3122.74 2855.33 3118.66 2830.37 3110.28C2695.87 3065.02 2636.44 2850.57 2635.87 2848.42C2633.21 2838.57 2624.39 2831.65 2614.19 2831.42C2576.48 2830.61 2541.05 2828.49 2507.67 2825.25C2539.71 2816.41 2572.19 2804.64 2603.59 2789.48C2611.01 2789.88 2618.52 2790.06 2626.07 2790.06C2735.53 2790.06 2854.15 2750.84 2857.8 2749.65C2851.93 2753.73 2633.47 2906.89 2814.15 3035.25C2867.29 3072.98 2926.37 3084.49 2978.61 3084.49C3009.76 3084.49 3038.48 3080.4 3062.09 3075.36C3017.55 3106.33 2962.68 3122.74 2908.79 3122.74ZM2358.16 2800.98C2205.88 2764.98 2115.63 2704.49 2065.77 2658.38C2094.37 2664.8 2123.47 2668.53 2152.93 2668.53C2158.15 2668.53 2163.39 2668.41 2168.63 2668.17C2173.27 2667.94 2177.53 2664.96 2179.13 2660.3C2179.41 2659.49 2179.59 2658.68 2179.69 2657.86C2202.08 2660.21 2224.65 2661.41 2247.36 2661.41C2299.16 2661.41 2351.73 2655.13 2404.65 2641.84C2405.97 2646.97 2410.61 2650.44 2415.75 2650.44C2416.53 2650.44 2417.33 2650.36 2418.13 2650.2L2427.17 2648.28C2428.83 2673.16 2440.15 2730.77 2507.07 2766.3C2511.81 2768.82 2516.75 2771.12 2521.87 2773.18C2463.91 2792.29 2405.73 2800.57 2358.16 2800.98Z" fill="#CDC6D0"/>
<path d="M2908.39 3168.57C2876.68 3168.57 2845.24 3163.74 2815.74 3153.82C2680.39 3108.3 2614.26 2932.4 2596.47 2876.92C2099.5 2861.04 1976.55 2625.88 1971.51 2615.77C1965.84 2604.41 1970.46 2590.61 1981.8 2584.94C1993.14 2579.32 2006.88 2583.88 2012.58 2595.17C2014.23 2598.36 2134.67 2821.04 2614.19 2831.42C2624.39 2831.65 2633.22 2838.57 2635.87 2848.42C2636.44 2850.57 2695.87 3065.02 2830.38 3110.28C2908.16 3136.42 3001.95 3120.69 3069.32 3070.14C3117.66 3033.88 3143.12 2986 3141.03 2935.3C3133.11 2743.29 3073.04 2589.16 2976.2 2512.41C2930.46 2476.16 2857.75 2453.13 2773.55 2426.46C2624.3 2379.18 2438.55 2320.36 2302.95 2152.58C2294.98 2142.72 2296.51 2128.26 2306.38 2120.28C2316.24 2112.3 2330.71 2113.84 2338.68 2123.7C2465.59 2280.73 2644.04 2337.25 2787.42 2382.66C2875.94 2410.7 2952.38 2434.92 3004.74 2476.41C3151.67 2592.85 3181.96 2812.73 3186.94 2933.42C3189.67 2999.66 3157.68 3061.28 3096.9 3106.89C3043.24 3147.14 2975.22 3168.57 2908.39 3168.57Z" fill="#371A45"/>
<path d="M2354.42 2846.94C2341.73 2846.94 2331.45 2836.66 2331.45 2823.97C2331.45 2811.29 2341.73 2801 2354.42 2801C2455.39 2801 2606.67 2765.06 2700.7 2663.81C2762.13 2597.66 2789.53 2513.64 2782.15 2414.08C2781.21 2401.41 2790.71 2390.4 2803.37 2389.46C2816.03 2388.58 2827.03 2398.01 2827.97 2410.68C2836.34 2523.49 2804.85 2619.17 2734.37 2695.06C2630.27 2807.17 2464.63 2846.94 2354.42 2846.94Z" fill="#371A45"/>
<path d="M2867.19 2756.36C2864.8 2759.66 2863 2761.7 2860.88 2764.14C2858.82 2766.46 2856.7 2768.62 2854.59 2770.84C2850.27 2775.06 2845.86 2779.14 2841.27 2782.94C2836.76 2786.88 2831.96 2790.3 2827.28 2793.98C2822.43 2797.3 2817.63 2800.81 2812.68 2804C2792.92 2816.88 2771.98 2827.49 2750.52 2836.66C2729.14 2846.14 2707.04 2853.44 2684.84 2860.38L2651.23 2869.49L2617.3 2877.08C2604.9 2879.86 2592.59 2872.05 2589.82 2859.65C2587.04 2847.25 2594.84 2834.96 2607.24 2832.18C2607.87 2832.04 2608.5 2831.92 2609.12 2831.84L2610.08 2831.7L2642.67 2827.28L2674.99 2821.41C2696.28 2816.66 2717.63 2811.61 2738.18 2804.5C2758.83 2797.68 2779.04 2789.5 2798.03 2779.29C2802.8 2776.78 2807.36 2773.98 2812.06 2771.34C2816.5 2768.41 2821.15 2765.66 2825.42 2762.53C2829.8 2759.49 2833.95 2756.25 2838 2752.93C2839.92 2751.22 2841.92 2749.52 2843.76 2747.77C2845.51 2746.12 2847.55 2744.02 2848.59 2742.86L2849.35 2742.01C2853.58 2737.3 2860.82 2736.9 2865.54 2741.13C2869.92 2745.06 2870.54 2751.66 2867.19 2756.36Z" fill="#371A45"/>
<path d="M2662.48 2519.36C2160.69 2877.09 1639.75 2502.69 1406.4 2022.4C1395.95 2000.92 1386.07 1979.21 1376.88 1957.33C1339.55 1869.34 1312.09 1778.89 1296.19 1689.53L1699.12 1496.04L1983.92 1359.3L2077.08 1314.56C2149.33 1394.45 2219.73 1455.84 2287.28 1507.13C2391.75 1586.49 2489.37 1641.86 2576.61 1704.8C2666.79 1769.88 2745.8 1842.98 2809.67 1959C2924.13 2166.96 2854.24 2382.66 2662.48 2519.36Z" fill="white"/>
<path d="M2247.36 2661.41C2224.64 2661.41 2202.09 2660.2 2179.69 2657.85C2180.31 2652.53 2177.17 2647.3 2171.88 2645.49L2171.63 2645.4C2150.01 2637.97 2128.61 2631.53 2107.29 2624.98C2100.69 2622.97 2094.09 2620.93 2087.51 2618.88C2109.36 2613.16 2131.12 2607.02 2152.43 2600.62C2157.72 2600.76 2163.03 2600.82 2168.33 2600.82C2264.33 2600.82 2362.85 2579.29 2461.61 2531.46L2421.44 2625.21L2412.91 2627.82L2412.36 2628C2406.76 2629.72 2403.29 2635.48 2404.53 2641.33C2404.56 2641.5 2404.6 2641.66 2404.65 2641.84C2351.72 2655.13 2299.17 2661.41 2247.36 2661.41Z" fill="#CDC6D0"/>
<path d="M2662.52 2542.33C2655.35 2542.33 2648.28 2538.97 2643.79 2532.69C2636.43 2522.36 2638.83 2508.01 2649.16 2500.65C2840.74 2364.08 2894.52 2160.78 2789.54 1970.08C2702.27 1811.56 2584.4 1734.73 2447.92 1645.78C2331.1 1569.64 2198.68 1483.33 2060.02 1330C2051.51 1320.58 2052.24 1306.05 2061.66 1297.54C2071.06 1289.04 2085.58 1289.77 2094.1 1299.18C2228.78 1448.1 2358.52 1532.68 2473 1607.29C2614.66 1699.61 2736.98 1779.34 2829.79 1947.92C2945.16 2157.49 2884.74 2389.13 2675.83 2538.05C2671.79 2540.94 2667.14 2542.33 2662.52 2542.33Z" fill="#371A45"/>
<path d="M1391.59 1962.57C1436 2041.72 1481.04 2119.28 1532.65 2192.64C1558.49 2229.25 1586.08 2264.57 1615.37 2298.34C1644.57 2332.18 1675.41 2364.57 1708.04 2394.96C1740.79 2425.17 1774.59 2454.25 1810.47 2480.48C1846.33 2506.7 1883.76 2530.68 1922.61 2551.94C1942.17 2562.29 1961.91 2572.41 1982.21 2581.13C1992.24 2585.74 2002.64 2589.77 2012.96 2593.92C2023.09 2598.09 2033.21 2601.53 2043.79 2605.04C2064.83 2611.77 2086 2618.46 2107.29 2624.98C2128.61 2631.53 2150.01 2637.97 2171.63 2645.4L2171.88 2645.49C2177.97 2647.58 2181.23 2654.21 2179.13 2660.3C2177.53 2664.96 2173.27 2667.94 2168.63 2668.17C2074.05 2672.5 1982.99 2636.8 1899.75 2595.28C1858.03 2573.93 1818.32 2548.93 1780.47 2521.57C1742.57 2494.25 1706.69 2464.29 1673.01 2432.13C1605.25 2368.17 1545.96 2295.97 1494.13 2219.18C1442.28 2142.45 1398.85 2059.66 1370.51 1971.69C1368.55 1965.62 1371.88 1959.12 1377.95 1957.17C1383.27 1955.45 1388.92 1957.8 1391.55 1962.49L1391.59 1962.57Z" fill="#371A45"/>
<path d="M3672.4 2706.52C3618.99 2805.18 3490.98 2855.04 3369.34 2827.7C3212.2 2792.32 3125.08 2565.18 3125.08 2565.18C2836.84 2630.77 2648 2529.52 2648 2529.52C2648 2529.52 2579.03 2600.85 2415.52 2639.04L2461.64 2531.41L2748.63 1861.7C2956.07 2079.08 3274.98 2010.57 3451.99 2110.61C3540.36 2160.52 3689.8 2429.7 3697.9 2590.33C3700.15 2633.93 3690.55 2673.04 3672.4 2706.52Z" fill="white"/>
<path d="M3436.05 2812.06C3425.26 2812.06 3414.47 2811.45 3403.75 2810.22L3388.37 2808.02C3383.33 2806.98 3378.13 2806.08 3373.19 2804.94C3363.62 2802.53 3354.11 2799.66 3344.9 2795.7C3326.42 2788 3308.87 2777.32 3292.49 2764.65C3259.67 2739.2 3231.81 2706.12 3207.55 2670.64C3195.5 2652.77 3184.33 2634.2 3174.07 2615.1C3168.93 2605.57 3164.06 2595.88 3159.41 2586.12C3154.81 2576.48 3150.23 2566.22 3146.55 2556.98L3146.54 2556.94C3143.07 2548.09 3134.47 2542.24 3124.98 2542.24C3123.5 2542.24 3122.01 2542.37 3120.5 2542.68L3119.99 2542.77L3090.89 2548.49L3076.34 2551.36C3071.5 2552.38 3066.65 2553.28 3061.73 2553.84L3032.38 2557.84C3027.47 2558.46 3022.59 2559.28 3017.69 2559.76L3002.93 2560.92L2973.42 2563.25L2943.86 2563.94L2929.07 2564.29L2914.3 2563.84C2904.46 2563.45 2894.59 2563.4 2884.78 2562.76C2845.47 2560.25 2806.42 2554.69 2768.17 2546.02L2753.83 2542.72L2739.69 2538.84C2730.18 2536.42 2720.94 2533.33 2711.65 2530.4C2702.45 2527.28 2693.21 2524.09 2684.31 2520.48C2679.83 2518.69 2675.34 2516.92 2671.06 2514.96C2666.81 2513.14 2662.18 2510.94 2658.85 2509.25H2658.83L2656.89 2508.26C2653.93 2506.78 2650.71 2506.05 2647.51 2506.05C2641.54 2506.05 2635.61 2508.6 2631.46 2513.53C2630.66 2514.49 2628.69 2516.49 2627.07 2518.05C2625.45 2519.7 2623.51 2521.36 2621.74 2523.02C2618.03 2526.3 2614.27 2529.61 2610.26 2532.74C2602.42 2539.14 2594.03 2545.13 2585.5 2550.96C2568.37 2562.53 2550.18 2572.89 2531.47 2582.42C2512.7 2591.86 2493.3 2600.26 2473.49 2607.81C2463.63 2611.73 2453.5 2614.89 2443.47 2618.48L2421.45 2625.21L2461.65 2531.41C2622.39 2449.57 2675.81 2326.78 2689.18 2326.78C2702.51 2326.78 2730.77 2423.73 2879.51 2466C2945.19 2484.65 3003.1 2492.3 3054.01 2492.3C3169.67 2492.3 3249.33 2452.84 3302.66 2413.37C3355.99 2373.92 3383.02 2334.45 3393.41 2334.45C3393.57 2334.45 3393.71 2334.46 3393.86 2334.48C3418.22 2337.41 3170.91 2605.16 3314.15 2716C3354.39 2747.12 3406.05 2759.46 3460.09 2759.46C3518.9 2759.48 3580.54 2744.85 3633.41 2723.89C3631.49 2726.28 3629.51 2728.61 3627.49 2730.92C3601.14 2761.49 3565.14 2783.77 3526.29 2797.3C3497.37 2807.13 3466.71 2812.06 3436.05 2812.06Z" fill="#CDC6D0"/>
<path d="M2765.24 1845.88C2794.87 1876.64 2828.61 1903.21 2865.43 1925.02C2902.51 1946.4 2942.2 1963.65 2983.73 1976.46C3066.72 2002.88 3154.91 2013.82 3243.92 2027.78C3266.21 2031.28 3288.61 2035.05 3311.05 2039.56C3333.49 2044.01 3356 2049.16 3378.39 2055.88C3400.76 2062.53 3423.05 2070.52 3444.71 2080.89L3460.73 2089.25C3463.31 2090.48 3466.31 2092.49 3469.13 2094.24C3472.07 2096 3474.79 2097.86 3477.28 2099.81C3487.85 2107.4 3496.69 2115.77 3505.32 2124.25C3538.85 2158.6 3565.09 2196.5 3589.45 2235.45C3613.64 2274.46 3634.95 2314.97 3654.01 2356.6C3672.97 2398.26 3689.49 2441.16 3702.24 2485.72C3708.56 2508.01 3713.77 2530.8 3717.28 2554.21C3718.12 2560.08 3718.77 2566.01 3719.51 2571.9L3720.87 2589.92C3720.95 2596.05 3721.21 2602.17 3721.09 2608.32C3720.72 2614.46 3720.69 2620.62 3719.99 2626.76C3717.63 2651.33 3711.49 2675.72 3701.69 2698.56C3692.03 2721.46 3678.27 2742.5 3662.11 2761.1C3629.71 2798.57 3586.75 2824.9 3541.17 2840.77C3495.35 2856.33 3446.32 2861.33 3398.45 2855.86C3392.48 2855.12 3386.52 2854.18 3380.56 2853.3C3374.64 2852.1 3368.77 2851.08 3362.8 2849.69C3350.64 2846.69 3338.65 2843 3327.25 2838.13C3304.36 2828.58 3283.36 2815.68 3264.31 2800.94C3226.2 2771.29 3195.77 2734.76 3169.51 2696.41C3156.49 2677.1 3144.53 2657.22 3133.59 2636.84C3128.08 2626.65 3122.89 2616.3 3117.91 2605.84C3112.88 2595.25 3108.27 2585.05 3103.67 2573.46L3103.64 2573.4L3130.19 2587.57L3099.59 2593.61L3084.28 2596.61C3079.19 2597.68 3074.07 2598.61 3068.89 2599.21L3037.96 2603.45C3032.8 2604.1 3027.67 2604.96 3022.48 2605.45L3006.91 2606.69L2975.75 2609.13L2944.48 2609.89L2928.85 2610.24L2913.21 2609.76C2902.79 2609.37 2892.35 2609.29 2881.93 2608.61C2840.25 2605.96 2798.75 2600.06 2757.88 2590.8L2742.56 2587.26L2727.37 2583.1C2717.2 2580.5 2707.2 2577.17 2697.16 2574C2687.16 2570.62 2677.19 2567.17 2667.31 2563.16C2662.36 2561.18 2657.41 2559.24 2652.47 2556.98C2647.41 2554.78 2642.85 2552.68 2637.15 2549.76L2637.12 2549.74L2664.49 2545.46C2661.47 2548.33 2659.43 2549.96 2656.99 2551.97C2654.61 2553.96 2652.28 2555.64 2649.93 2557.46C2645.2 2560.94 2640.51 2564.38 2635.68 2567.52C2626.13 2573.97 2616.33 2579.73 2606.45 2585.26C2586.65 2596.22 2566.24 2605.54 2545.55 2613.86C2524.81 2622.09 2503.73 2629.06 2482.47 2635.09C2471.87 2638.24 2461.08 2640.6 2450.43 2643.37L2418.13 2650.2C2411.93 2651.5 2405.84 2647.53 2404.53 2641.33C2403.29 2635.48 2406.76 2629.72 2412.36 2628L2412.91 2627.82L2443.47 2618.48C2453.49 2614.89 2463.63 2611.73 2473.48 2607.81C2493.29 2600.26 2512.69 2591.86 2531.47 2582.42C2550.17 2572.89 2568.36 2562.53 2585.49 2550.96C2594.03 2545.13 2602.41 2539.14 2610.25 2532.74C2614.27 2529.61 2618.03 2526.3 2621.73 2523.02C2623.51 2521.36 2625.44 2519.7 2627.07 2518.05C2628.68 2516.49 2630.65 2514.49 2631.45 2513.53C2637.81 2505.94 2648.41 2504 2656.88 2508.26L2658.83 2509.25H2658.84C2662.17 2510.94 2666.8 2513.14 2671.05 2514.96C2675.33 2516.92 2679.83 2518.69 2684.31 2520.48C2693.2 2524.09 2702.44 2527.28 2711.64 2530.4C2720.93 2533.33 2730.17 2536.42 2739.68 2538.84L2753.83 2542.72L2768.16 2546.02C2806.41 2554.69 2845.47 2560.25 2884.77 2562.76C2894.59 2563.4 2904.45 2563.45 2914.29 2563.84L2929.07 2564.29L2943.85 2563.94L2973.41 2563.25L3002.92 2560.92L3017.68 2559.76C3022.59 2559.28 3027.47 2558.46 3032.37 2557.84L3061.72 2553.84C3066.64 2553.28 3071.49 2552.38 3076.33 2551.36L3090.88 2548.49L3119.99 2542.77L3120.49 2542.68C3131.65 2540.48 3142.52 2546.7 3146.53 2556.94L3146.55 2556.98C3150.23 2566.22 3154.8 2576.48 3159.4 2586.12C3164.05 2595.88 3168.92 2605.57 3174.07 2615.1C3184.32 2634.2 3195.49 2652.77 3207.55 2670.64C3231.8 2706.12 3259.67 2739.2 3292.48 2764.65C3308.87 2777.32 3326.41 2788 3344.89 2795.7C3354.11 2799.66 3363.61 2802.53 3373.19 2804.94C3378.12 2806.08 3383.32 2806.98 3388.36 2808.02L3403.75 2810.22C3444.92 2814.93 3487.19 2810.58 3526.28 2797.3C3565.13 2783.77 3601.13 2761.49 3627.48 2730.92C3654.24 2700.7 3670.48 2662.48 3674.24 2622.4C3676.27 2602.42 3674.97 2581.97 3671.83 2560.93C3668.69 2540.02 3663.92 2519.01 3658.01 2498.2C3646.12 2456.54 3630.37 2415.54 3612.21 2375.64C3593.95 2335.78 3573.43 2296.8 3550.39 2259.62C3527.35 2222.64 3501.97 2186.5 3472.77 2156.68C3465.44 2149.46 3457.91 2142.4 3450.23 2136.94C3448.32 2135.42 3446.41 2134.14 3444.53 2133.04C3442.57 2131.86 3440.97 2130.64 3438.48 2129.45L3424.71 2122.26C3405.91 2113.26 3385.91 2106.05 3365.33 2099.93C3344.79 2093.76 3323.56 2088.88 3302.04 2084.61C3280.55 2080.29 3258.73 2076.61 3236.75 2073.16C3148.91 2059.3 3058.15 2048.28 2969.89 2020.28C2925.79 2006.66 2882.71 1988.05 2842.16 1964.64C2801.84 1940.78 2764.55 1911.42 2732 1877.6C2723.21 1868.45 2723.49 1853.9 2732.64 1845.12C2741.77 1836.32 2756.32 1836.6 2765.12 1845.74L2765.24 1845.88Z" fill="#371A45"/>
<path d="M3404.84 2337.86C3400.72 2354.3 3395.17 2369 3388.81 2383.97C3382.53 2398.86 3374.93 2413.16 3366.72 2427.16C3350.24 2455.12 3329.96 2481.22 3306.08 2504.14C3294.04 2515.48 3281.31 2526.21 3267.64 2535.81C3253.87 2545.22 3239.51 2553.9 3224.32 2561.02C3194.05 2575.46 3161.24 2584.41 3128.27 2587.92C3115.65 2589.26 3104.32 2580.13 3102.97 2567.5C3101.71 2555.56 3109.83 2544.77 3121.41 2542.52L3121.91 2542.42C3150.36 2536.96 3177.96 2528.96 3204.09 2517.29C3217.16 2511.46 3229.76 2504.62 3242.07 2497.2C3254.23 2489.52 3266.04 2481.14 3277.25 2471.9C3299.63 2453.33 3319.83 2431.69 3337.69 2407.92C3346.65 2396.04 3354.65 2383.42 3362.43 2370.61C3370.09 2357.89 3377.13 2344.1 3382.89 2331.09L3383.19 2330.41C3385.76 2324.61 3392.55 2322 3398.35 2324.56C3403.55 2326.86 3406.19 2332.53 3404.84 2337.86Z" fill="#371A45"/>
<path d="M3681.53 1035.38C3668.57 1130.04 3571.71 1195.42 3425.53 1256.34C3157.11 1558.44 2833.92 1674 2585.68 1698.72C2561.91 1701.17 2538.8 1702.72 2516.53 1703.49C2504.23 1703.97 2492.23 1704.14 2480.45 1704.14L2257.24 1544.89L1969.4 1339.46L1898.59 1288.94C1898.59 1288.94 2115.77 1267.21 2376.67 1206.12C2608.49 1151.89 2874.83 1066.56 3053.85 937.811C3123.12 888.011 3244.71 831.465 3296.6 807.985C3392.87 764.398 3538.99 721.518 3625.93 855.878C3671.61 926.465 3688.45 985.051 3681.53 1035.38Z" fill="white"/>
<path d="M2590.05 1679.01C2762.81 1618.61 3043.85 1499.98 3147.61 1338.98C3248.59 1182.46 3273.85 1103.7 3260.05 915.063C3259.67 909.757 3259.71 907.343 3260.24 907.343C3262.79 907.343 3276.69 963.45 3308.52 1019.57C3340.35 1075.69 3390.11 1131.8 3464.35 1131.81C3481.49 1131.81 3499.92 1128.82 3519.76 1122.16C3575.57 1103.38 3619.11 1084.42 3651.32 1061.56C3649.64 1065.98 3647.69 1070.33 3645.48 1074.6C3635.48 1093.82 3621.4 1111.58 3604.4 1127.25C3587.44 1142.97 3568.19 1156.97 3547.85 1169.73C3507.05 1195.21 3462.29 1215.98 3416.77 1235.12L3416.72 1235.14L3412.45 1236.89L3408.39 1241.09L3362.29 1288.65L3350.84 1300.61C3346.91 1304.46 3342.79 1308.13 3338.77 1311.9L3314.52 1334.4L3290.28 1356.88L3264.79 1377.9C3247.69 1391.78 3231.4 1406.68 3213.35 1419.32L3186.85 1439.02C3177.99 1445.54 3169.35 1452.4 3159.99 1458.21C3141.56 1470.22 3123.35 1482.6 3104.75 1494.34L3047.69 1527.53L2989.12 1557.92C2909.93 1596.22 2827.09 1627.37 2741.6 1648.65C2698.8 1658.89 2655.76 1668.49 2612.19 1675.37L2590.05 1679.01Z" fill="#CDC6D0"/>
<path d="M1896.3 1266.1C1945.33 1260.85 1995.02 1253.98 2044.25 1246.53C2093.57 1239.02 2142.77 1230.68 2191.8 1221.48C2289.84 1203.04 2387.29 1181.52 2483.46 1155.58C2531.6 1142.8 2579.29 1128.57 2626.6 1113.28C2673.94 1098.14 2720.64 1081.2 2766.7 1062.9C2812.84 1044.76 2857.96 1024.38 2901.93 1002.08C2924.06 991.157 2945.38 978.904 2966.82 966.877L2998.14 947.584C3008.66 941.264 3018.45 933.97 3028.65 927.21L3044.02 916.69C3049.41 912.97 3054.78 909.157 3060.24 905.69C3071.09 898.557 3082.06 891.797 3093.1 885.304C3115.18 872.277 3137.54 860.117 3160.06 848.384C3205.21 824.984 3250.52 803.397 3297.09 782.61C3344.45 762.157 3395.2 745.25 3449.89 742.544C3477.09 741.357 3505.32 743.984 3532.25 752.904C3559.26 761.464 3584.3 776.557 3605.05 795.437C3615.22 805.037 3624.92 815.184 3633.08 826.25C3637.46 831.61 3641 837.424 3644.97 843.01L3655.33 859.664C3668.76 882.117 3680.89 905.744 3690.18 931.13C3699.44 956.437 3705.89 983.784 3705.86 1012.32C3706.2 1026.52 3704.28 1040.92 3701.18 1054.94C3697.97 1069.01 3692.7 1082.48 3686.49 1095.32C3673.41 1120.64 3655.56 1142.53 3635.74 1160.84C3615.9 1179.22 3594.38 1194.76 3572.26 1208.65C3527.92 1236.3 3481.32 1257.8 3434.45 1277.53L3434.4 1277.56L3442.73 1271.61L3396.5 1322.01L3384.88 1334.56C3380.88 1338.61 3376.69 1342.49 3372.6 1346.46L3347.9 1370.17L3323.18 1393.86L3297.13 1416.12C3279.61 1430.77 3262.6 1446.05 3243.94 1459.29C3171.52 1514.96 3093.72 1564.16 3010.86 1603.05C2928.29 1642.4 2841.52 1672.97 2752.45 1693.54L2718.86 1700.46C2707.66 1702.7 2696.52 1705.18 2685.17 1706.69C2662.52 1709.8 2640.01 1713.66 2617.17 1715.04L2583.04 1717.66L2548.78 1718.29L2531.69 1718.41C2525.98 1718.25 2520.28 1718 2514.57 1717.7C2503.17 1717.14 2491.8 1716.46 2480.46 1715.64C2474.12 1715.17 2469.36 1709.65 2469.82 1703.3C2470.24 1697.74 2474.53 1693.38 2479.88 1692.73L2480.46 1692.66C2491.56 1691.28 2502.6 1690.05 2513.64 1688.93L2530.16 1687.32L2546.62 1685L2579.49 1680.74L2612.18 1675.37C2655.76 1668.49 2698.8 1658.89 2741.6 1648.65C2827.09 1627.37 2909.93 1596.22 2989.12 1557.92L3047.69 1527.53L3104.74 1494.34C3123.34 1482.6 3141.56 1470.22 3159.98 1458.21C3169.34 1452.4 3177.98 1445.54 3186.85 1439.02L3213.34 1419.32C3231.4 1406.68 3247.69 1391.78 3264.78 1377.9L3290.28 1356.88L3314.52 1334.4L3338.77 1311.9C3342.78 1308.13 3346.9 1304.46 3350.84 1300.61L3362.29 1288.65L3408.38 1241.09L3412.45 1236.89L3416.72 1235.14L3416.77 1235.12C3462.29 1215.98 3507.05 1195.21 3547.85 1169.73C3568.18 1156.97 3587.44 1142.97 3604.4 1127.25C3621.4 1111.58 3635.48 1093.82 3645.48 1074.6C3665.46 1036.02 3663.45 990.17 3647 946.824C3639.06 925.104 3628.25 903.89 3615.96 883.33L3606.45 868.037C3603.12 863.45 3600.17 858.477 3596.57 854.157C3589.88 844.997 3582.09 836.997 3574.09 829.384C3557.74 814.584 3538.88 803.197 3518.02 796.584C3497.28 789.69 3474.76 787.45 3451.94 788.437C3406.09 790.61 3359.81 805.477 3315.44 824.744C3270.42 844.837 3225.13 866.384 3181.25 889.157C3159.29 900.584 3137.58 912.397 3116.49 924.864C3105.92 931.064 3095.53 937.477 3085.44 944.117C3080.3 947.357 3075.46 950.824 3070.53 954.224L3054.86 964.944C3044.17 972.05 3033.8 979.73 3022.82 986.344L2990.09 1006.49C2967.82 1019.01 2945.62 1031.73 2922.78 1043.02C2877.33 1066.08 2830.93 1087.01 2783.73 1105.57C2736.6 1124.29 2688.94 1141.57 2640.77 1156.98C2592.65 1172.54 2544.2 1186.98 2495.4 1199.96C2397.88 1226.24 2299.33 1248 2200.25 1266.64C2150.7 1275.94 2101.01 1284.37 2051.17 1291.94C2001.24 1299.5 1951.57 1306.38 1900.88 1311.81C1888.26 1313.17 1876.93 1304.04 1875.58 1291.42C1874.24 1278.81 1883.37 1267.48 1895.98 1266.13L1896.3 1266.1Z" fill="#371A45"/>
<path d="M1559.72 1981.4C1558.62 1981.4 1557.52 1981.4 1556.42 1981.4C1555.78 1981.4 1555.2 1981.4 1554.58 1981.33C1512.47 1980.88 1470.2 1976.8 1428.23 1968.88C1415.56 1966.5 1402.94 1963.78 1390.32 1960.73C1388.15 1958.13 1384.91 1956.61 1381.5 1956.61C1380.32 1956.61 1379.12 1956.78 1377.95 1957.17C1377.71 1957.24 1377.47 1957.33 1377.23 1957.42C1377.12 1957.38 1377 1957.36 1376.88 1957.33C1366.06 1931.82 1356.07 1906.09 1346.94 1880.26C1360.59 1881.21 1374.27 1881.88 1387.98 1882.25C1396.3 1882.45 1404.68 1882.54 1413.06 1882.54C1422.98 1882.54 1432.91 1882.41 1442.75 1882.13C1740.15 1873.04 2014.42 1727.8 2187.11 1494.84L2257.24 1544.89L2264.59 1550.13C2263.31 1552.38 2262.03 1554.62 2260.75 1556.86C2113.67 1813.76 1863.95 1966 1602.99 1980.3C1588.59 1981.05 1574.18 1981.4 1559.72 1981.4Z" fill="#CDC6D0"/>
<path d="M1390.32 1960.73C1385.96 1959.66 1381.59 1958.57 1377.23 1957.42C1377.47 1957.33 1377.71 1957.24 1377.95 1957.17C1379.12 1956.78 1380.32 1956.61 1381.49 1956.61C1384.91 1956.61 1388.15 1958.13 1390.32 1960.73Z" fill="#371A45"/>
<path d="M2264.59 1550.13L2257.24 1544.89L2187.11 1494.84C2203.39 1472.88 2218.75 1450.16 2233.16 1426.68C2269.6 1423.65 2304.38 1410.89 2335.95 1390.42C2324.75 1423.22 2311.68 1455.69 2296.7 1487.65C2293.66 1494.2 2290.5 1500.69 2287.28 1507.13C2280.06 1521.77 2272.5 1536.12 2264.59 1550.13Z" fill="#CDC6D0"/>
<path d="M566.393 1315.85C629.336 1455.9 728.079 1580.93 858.012 1676.49C884.519 1695.96 912.212 1714.21 941.186 1731.08C955.252 1739.33 969.745 1747.22 984.492 1754.92C1029.03 1777.82 1074.57 1796.81 1120.81 1811.98C1160.63 1825.14 1200.97 1835.42 1241.45 1843.02C1290.33 1852.21 1339.52 1857.33 1388.53 1858.66C1406.4 1859.1 1424.24 1859.05 1442.04 1858.54C1767.67 1848.6 2078.97 1670.29 2241.16 1365.21C2480.16 915.85 2304.95 361.77 1849.96 127.596C1762.31 82.5565 1670.6 52.5031 1578.03 36.8765C1567.23 34.9564 1556.32 33.3298 1545.4 31.9298C1516.23 27.9965 1487.01 25.45 1457.85 24.3032C1390.4 21.6499 1323.19 26.3431 1257.47 37.9298C1191.75 49.4498 1127.37 67.9166 1065.71 92.9032C1046.11 100.837 1026.75 109.397 1007.67 118.69C979.065 132.61 951.146 147.89 923.972 164.77C788.452 248.423 672.879 367.583 593.297 517.303C455.8 775.783 455.408 1068.88 566.393 1315.85Z" fill="white"/>
<path d="M568.563 1314.88C632.588 1457.34 733.163 1581.73 859.416 1674.58C886.149 1694.21 914.069 1712.53 942.389 1729.04C955.403 1736.65 969.523 1744.44 985.589 1752.81C1029.39 1775.34 1075.14 1794.49 1121.55 1809.72C1160.4 1822.57 1200.88 1833 1241.88 1840.69C1289.82 1849.69 1339.18 1854.96 1388.6 1856.29C1406.34 1856.72 1424.3 1856.68 1441.96 1856.17C1777.72 1845.92 2083.16 1657.37 2239.06 1364.09C2353.88 1148.2 2377.07 901.304 2304.32 668.891C2230.99 434.611 2069.24 243.131 1848.88 129.704C1762.88 85.5306 1671.63 55.0774 1577.64 39.2241C1567.34 37.384 1556.7 35.7705 1545.11 34.2772C1516.1 30.3839 1486.71 27.8239 1457.76 26.6772C1391.15 24.0505 1323.9 28.6372 1257.88 40.2639C1192.47 51.7306 1128.12 70.1707 1066.6 95.104C1046.82 103.104 1027.34 111.757 1008.71 120.824C979.669 134.957 951.576 150.424 925.229 166.797C786.069 252.677 672.016 374.277 595.397 518.411C462.855 767.584 453.076 1057.88 568.563 1314.88ZM1413.07 1861.34C1404.86 1861.34 1396.64 1861.24 1388.48 1861.05C1338.8 1859.69 1289.18 1854.41 1241.02 1845.34C1199.8 1837.62 1159.11 1827.16 1120.07 1814.22C1073.42 1798.92 1027.43 1779.68 983.403 1757.02C967.256 1748.61 953.056 1740.8 939.989 1733.13C911.536 1716.56 883.469 1698.14 856.603 1678.41C729.696 1585.08 628.595 1460.04 564.232 1316.82C448.139 1058.48 457.969 766.651 591.205 516.184C668.216 371.291 782.856 249.077 922.723 162.744C949.203 146.304 977.443 130.757 1006.63 116.544C1025.35 107.451 1044.94 98.744 1064.83 90.704C1126.66 65.6506 1191.32 47.1039 1257.06 35.5973C1323.4 23.9039 1390.98 19.304 1457.95 21.9305C1487.06 23.0773 1516.59 25.6506 1545.72 29.5707C1557.38 31.064 1568.1 32.6906 1578.46 34.5438C1672.9 50.4772 1764.62 81.0774 1851.06 125.491C2072.56 239.491 2235.15 431.97 2308.86 667.477C2381.98 901.117 2358.68 1149.3 2243.26 1366.32C2086.55 1661.1 1779.58 1850.61 1442.11 1860.92C1432.48 1861.2 1422.78 1861.34 1413.07 1861.34Z" fill="#371A45"/>
<path d="M1448.31 1834.73C1591.13 1810.66 1725.4 1755.6 1838.52 1672.4C1944.43 1594.48 2027.83 1496.3 2086.41 1381.82C2114.79 1403.72 2146.04 1417.94 2179 1424.02C2018.97 1668.46 1746.2 1823.38 1448.31 1834.73ZM1281.89 1801.42C1230.39 1801.42 1178.35 1797.32 1126.41 1788.98C1112.85 1784.5 1099.35 1779.68 1085.93 1774.53C1085.89 1774.52 1085.87 1774.5 1085.84 1774.49C1085.72 1774.45 1085.61 1774.4 1085.49 1774.36C1085.41 1774.33 1085.33 1774.3 1085.27 1774.26C1085.2 1774.25 1085.13 1774.22 1085.08 1774.2C1084.95 1774.14 1084.83 1774.1 1084.69 1774.05C1084.68 1774.05 1084.67 1774.04 1084.65 1774.04C1054.25 1762.3 1024.36 1748.9 995.388 1734C983.641 1727.86 972.948 1722.08 962.988 1716.42C959.601 1714.5 956.295 1712.6 953.055 1710.7C928.495 1696.38 904.241 1680.68 880.828 1663.9C1008.71 1723.92 1146 1754.84 1282.19 1754.84C1390.16 1754.84 1497.43 1735.4 1598.75 1695.6C1787.31 1621.52 1930.4 1486.37 2011.77 1310.97C2013.84 1308.81 2015.92 1306.65 2017.96 1304.46C2027.64 1320.2 2038.48 1334.82 2050.41 1348.18C1994.85 1461.44 1914.08 1558.24 1810.56 1634.38C1662.39 1743.4 1475.72 1801.42 1281.89 1801.42ZM2300.27 733.837C2289.47 730.491 2278.43 728.051 2267.23 726.544C2269.04 692.85 2268.95 659.224 2267.01 625.771C2273.15 642.037 2278.84 658.517 2284.07 675.237C2290.16 694.664 2295.56 714.224 2300.27 733.837Z" fill="#CDC6D0"/>
<path d="M583.074 1308.36C645.977 1448.33 744.804 1570.53 868.844 1661.76C895.124 1681.06 922.551 1699.08 950.391 1715.28C963.217 1722.8 977.124 1730.45 992.937 1738.69C1035.92 1760.81 1080.88 1779.64 1126.51 1794.6C1164.72 1807.25 1204.51 1817.49 1244.82 1825.05C1291.94 1833.9 1340.44 1839.06 1389.03 1840.4C1406.44 1840.8 1424.12 1840.77 1441.51 1840.28C1771.55 1830.2 2071.78 1644.86 2225.02 1356.62C2337.83 1144.52 2360.6 901.97 2289.14 673.65C2217.1 443.463 2058.15 255.303 1841.6 143.85C1757.07 100.423 1667.36 70.4901 1574.99 54.9167C1564.8 53.0901 1554.42 51.5167 1543.08 50.0634C1514.47 46.2101 1485.59 43.7035 1457.14 42.5702C1391.66 40.0101 1325.55 44.49 1260.64 55.9434C1196.32 67.1967 1133.06 85.3434 1072.59 109.85C1053.11 117.717 1033.96 126.223 1015.67 135.13C987.124 149.023 959.511 164.224 933.617 180.303C796.831 264.744 684.737 384.223 609.448 525.877C479.229 770.677 469.62 1055.88 583.077 1308.36H583.074ZM1413.06 1877.25C1404.72 1877.25 1396.39 1877.14 1388.1 1876.94C1337.52 1875.57 1287.07 1870.2 1238.07 1860.98C1196.16 1853.13 1154.78 1842.48 1115.07 1829.33C1067.67 1813.78 1020.9 1794.21 976.124 1771.17C959.671 1762.6 945.244 1754.66 931.951 1746.86C903.044 1730.02 874.51 1711.3 847.19 1691.22C718.057 1596.26 615.204 1469.06 549.721 1323.34H549.718C431.596 1060.48 441.597 763.557 577.158 508.703C655.497 361.33 772.111 237.023 914.377 149.21C941.284 132.503 969.991 116.69 999.657 102.25C1018.72 92.9834 1038.63 84.13 1058.86 75.9434C1121.71 50.4767 1187.48 31.6234 1254.31 19.9167C1321.76 8.03674 1390.48 3.37012 1458.58 6.03687C1488.18 7.19678 1518.22 9.81006 1547.84 13.8101C1559.66 15.3167 1570.63 16.9834 1581.26 18.8767C1677.15 35.0634 1770.44 66.1833 1858.32 111.33C2083.66 227.303 2249.04 423.13 2324.04 662.73C2398.44 900.45 2374.74 1152.98 2257.3 1373.8C2097.92 1673.58 1785.75 1866.34 1442.59 1876.82C1432.8 1877.1 1422.92 1877.25 1413.06 1877.25Z" fill="#371A45"/>
<path d="M587.916 1306.18C650.446 1445.32 748.672 1566.8 871.992 1657.49C898.112 1676.68 925.392 1694.58 953.059 1710.7C965.819 1718.18 979.646 1725.78 995.392 1734C1038.1 1755.97 1082.81 1774.68 1128.17 1789.56C1166.17 1802.14 1205.73 1812.32 1245.81 1819.84C1292.65 1828.64 1340.87 1833.77 1389.18 1835.09C1406.49 1835.5 1424.06 1835.46 1441.37 1834.97C1769.49 1824.96 2067.99 1640.7 2220.33 1354.13C2332.47 1143.29 2355.11 902.183 2284.07 675.236C2212.46 446.41 2054.46 259.37 1839.18 148.57C1755.14 105.396 1665.95 75.6362 1574.11 60.1428C1563.95 58.3296 1553.66 56.7562 1542.42 55.3296C1513.93 51.4896 1485.22 48.9962 1456.93 47.8762C1391.82 45.3029 1326.1 49.7831 1261.57 61.1564C1197.61 72.3564 1134.71 90.3964 1074.58 114.756C1055.22 122.596 1036.18 131.05 1017.98 139.89C989.606 153.716 962.152 168.823 936.419 184.81C800.419 268.756 688.992 387.543 614.131 528.37C484.691 771.716 475.136 1055.21 587.916 1306.18ZM1413.06 1882.54C1404.69 1882.54 1396.3 1882.45 1387.98 1882.25C1337.1 1880.86 1286.37 1875.46 1237.1 1866.2C1194.97 1858.29 1153.34 1847.58 1113.41 1834.37C1065.75 1818.73 1018.73 1799.05 973.699 1775.89C957.139 1767.25 942.646 1759.28 929.259 1751.44C900.206 1734.5 871.526 1715.68 844.059 1695.5C714.192 1600 610.743 1472.06 544.887 1325.52H544.883C426.084 1061.14 436.143 762.53 572.478 506.223C651.259 358.023 768.512 232.996 911.592 144.703C938.632 127.903 967.512 112.01 997.339 97.4762C1016.51 88.1562 1036.54 79.2631 1056.87 71.0364C1120.07 45.423 1186.19 26.4631 1253.39 14.6897C1321.21 2.74304 1390.33 -1.95044 1458.78 0.729614C1488.55 1.90295 1518.77 4.54309 1548.55 8.5564C1560.43 10.0764 1571.47 11.7429 1582.18 13.663C1678.58 29.9163 1772.38 61.2097 1860.75 106.623C2087.35 223.25 2253.69 420.17 2329.1 661.143C2403.94 900.236 2380.1 1154.21 2261.98 1376.29C2101.73 1677.76 1787.81 1871.58 1442.75 1882.13C1432.91 1882.41 1422.98 1882.54 1413.06 1882.54Z" fill="#371A45"/>
<path d="M690.041 1516.49C1203.13 1932.16 1964.13 1721.16 2055.61 1077.7C2117.85 639.931 1731.33 243.238 1301.2 212.584C988.134 190.264 672.161 303.518 502.648 773.158C502.648 773.158 460.134 992.371 508.957 1144.17C557.781 1295.97 631.276 1435.38 631.276 1435.38L690.041 1516.49Z" fill="#371A45"/>
<path d="M2055.59 1077.7C1964.12 1721.14 1203.11 1932.13 690.042 1516.52L678.148 1500.06C1267.62 1650.61 1892.17 1342.69 1996.95 693.771C2051.31 811.424 2074.78 942.611 2055.59 1077.7Z" fill="#220F2D"/>
<path d="M1126.42 1788.98C1373.74 1828.66 1623.01 1772.37 1810.57 1634.38C1986.57 1504.92 2096.77 1315.81 2129.26 1087.52C2158.9 879.104 2096.03 666.237 1952.23 488.117C1791.38 288.864 1548.66 159.464 1302.97 141.944C1166.94 132.251 1042.91 147.104 934.299 186.131C799.285 269.957 688.605 388.264 614.131 528.371C484.691 771.717 475.136 1055.21 587.916 1306.18C650.445 1445.32 748.672 1566.8 871.992 1657.49C898.112 1676.68 925.392 1694.58 953.059 1710.7C965.819 1718.18 979.645 1725.78 995.392 1734C1037.55 1755.68 1081.66 1774.2 1126.42 1788.98ZM1281.79 1848.58C1227.17 1848.58 1172.06 1844.2 1117.03 1835.26L1113.46 1834.4C1065.75 1818.73 1018.73 1799.05 973.699 1775.89C957.139 1767.25 942.645 1759.28 929.259 1751.44C900.205 1734.5 871.525 1715.68 844.059 1695.5C714.192 1600 610.743 1472.06 544.887 1325.52H544.883C426.084 1061.14 436.143 762.531 572.48 506.224C651.259 358.024 768.512 232.997 911.592 144.704L913.645 143.424L915.925 142.597C1031.33 100.704 1162.7 84.6509 1306.31 94.8909C1564.83 113.318 1820.02 249.237 1988.94 458.477C2141.05 646.904 2207.46 872.651 2175.97 1094.16C2141.65 1335.29 2024.97 1535.24 1838.53 1672.4C1682.25 1787.36 1485.61 1848.58 1281.79 1848.58Z" fill="#371A45"/>
<path d="M707.308 1500.12C962.308 1705.34 1297 1763.46 1581.49 1651.69C1829.65 1554.18 1993.96 1343.77 2032.27 1074.38C2058.53 889.678 2002.79 701.011 1875.31 543.118C1732.65 366.411 1517.4 251.638 1299.52 236.105C926.188 209.465 665.814 392.251 525.488 779.358C521.73 799.998 487.27 999.704 531.412 1136.94C576.438 1276.93 643.544 1407.82 651.388 1422.94L707.308 1500.12ZM1282.19 1754.84C1069.15 1754.84 853.361 1679.16 675.201 1534.82L672.774 1532.86L610.412 1446.38C607.372 1440.62 535.392 1303.4 486.502 1151.4C436.401 995.625 477.709 777.865 479.49 768.664L480.461 765.144C628.67 354.544 905.308 160.691 1302.87 189.051C1533.57 205.491 1761.29 326.771 1912.01 513.478C2047.8 681.664 2107.09 883.225 2078.97 1081.02C2038.21 1367.7 1863.17 1591.72 1598.75 1695.6C1497.43 1735.4 1390.16 1754.84 1282.19 1754.84Z" fill="#371A45"/>
<path d="M2470.27 1068.61C2466.83 1249.57 2355.6 1399.62 2221.78 1403.73C2087.95 1407.84 1982.26 1264.46 1985.68 1083.5C1985.68 1082.37 1985.74 1081.17 1985.8 1080.02C1990.55 900.624 2101.3 752.45 2234.18 748.384C2337.56 745.21 2424.15 830.051 2456.63 952.224C2466.18 988.197 2471.04 1027.46 2470.27 1068.61Z" fill="white"/>
<path d="M2215.97 1380.21C2172.18 1380.21 2130.66 1361.92 2095.62 1327.29C2043.09 1275.36 2011.42 1191.89 2009.31 1101.44C2018.11 1106.76 2028.31 1110.24 2039.91 1110.24C2044.35 1110.24 2049.01 1109.73 2053.86 1108.61C2069.31 1105.08 2088.41 1092.96 2107.82 1077.4C2102.39 1119.88 2105.06 1162.21 2114.83 1200.9C2115.55 1204.62 2116.34 1208.34 2117.21 1212.04C2130.37 1268.1 2159.39 1309.93 2196.58 1333.48C2203.77 1338.94 2211.33 1343.82 2219.26 1348.1C2239.27 1358.86 2260.22 1365.05 2281.55 1366.62C2262.25 1374.8 2241.94 1379.49 2221.06 1380.13C2219.35 1380.18 2217.66 1380.21 2215.97 1380.21Z" fill="#CDC6D0"/>
<path d="M2239.82 771.89C2238.19 771.89 2236.56 771.916 2234.94 771.969C2113.7 775.676 2012.47 915.636 2009.27 1083.93C2007.43 1181.05 2039.71 1272.02 2095.62 1327.29C2132.02 1363.26 2175.4 1381.61 2221.06 1380.13C2342.28 1376.41 2443.51 1236.46 2446.71 1068.17C2448.55 971.049 2416.27 880.063 2360.36 824.809C2325.26 790.116 2283.67 771.89 2239.82 771.89ZM2216.06 1427.38C2159.58 1427.38 2106.6 1404.46 2062.46 1360.84C1996.58 1295.72 1959.99 1194.46 1962.11 1083.04C1965.78 889.983 2087.51 729.289 2233.48 724.809C2292.32 723.036 2347.71 745.983 2393.52 791.249C2459.42 856.369 2495.99 957.636 2493.88 1069.06C2490.22 1262.1 2368.47 1422.81 2222.5 1427.29C2220.35 1427.36 2218.2 1427.38 2216.06 1427.38Z" fill="#371A45"/>
<path d="M2484.15 1200.78C2437.22 1334.06 2319.15 1399.05 2220.43 1345.93C2121.71 1292.8 2079.72 1141.69 2126.66 1008.4C2173.59 875.118 2291.67 810.131 2390.39 863.251C2489.1 916.385 2531.08 1067.49 2484.15 1200.78Z" fill="white"/>
<path d="M2318.29 847.103C2299.6 847.103 2280.67 850.717 2261.91 857.983C2203.28 880.677 2154.84 935.797 2128.99 1009.22C2082.51 1141.2 2124.05 1291.26 2221.6 1343.76C2261.71 1365.34 2305.73 1367.9 2348.91 1351.2C2407.52 1328.5 2455.97 1273.38 2481.83 1199.96C2528.29 1067.98 2486.75 917.917 2389.21 865.423C2366.55 853.223 2342.61 847.103 2318.29 847.103ZM2292.49 1367.02C2267.39 1367.02 2242.68 1360.7 2219.25 1348.1C2119.67 1294.5 2077.09 1141.76 2124.33 1007.58C2150.67 932.797 2200.16 876.583 2260.12 853.383C2304.69 836.13 2350.13 838.797 2391.55 861.09C2491.13 914.677 2533.72 1067.42 2486.48 1201.6C2460.15 1276.38 2410.65 1332.58 2350.69 1355.8C2331.32 1363.29 2311.79 1367.02 2292.49 1367.02Z" fill="#371A45"/>
<path d="M2196.57 1333.48C2159.39 1309.93 2130.36 1268.1 2117.2 1212.04C2116.33 1208.34 2115.55 1204.62 2114.83 1200.9C2128.69 1255.77 2156.88 1303.3 2196.57 1333.48Z" fill="#A79BAD"/>
<path d="M2271.08 1355.21C2259.27 1355.21 2247.7 1353.73 2236.52 1350.84C2231.5 1348.77 2226.52 1346.41 2221.6 1343.76C2153.99 1307.37 2113.28 1224.12 2110.15 1132.5C2111.2 1109.64 2114.79 1086.82 2120.62 1064.7C2145.84 1141.82 2203.38 1186.81 2268.55 1186.81C2294.1 1186.81 2320.8 1179.9 2347.22 1165.32C2407.86 1131.88 2452.88 1065.62 2472.44 991.331C2474.71 998.078 2476.64 1005.18 2478.38 1012.46C2507.07 1134.77 2449.48 1278.61 2349.74 1333.72C2323.34 1348.3 2296.62 1355.21 2271.08 1355.21Z" fill="#CDC6D0"/>
<path d="M2236.52 1350.84C2222.48 1347.22 2209.07 1341.38 2196.57 1333.48C2156.88 1303.3 2128.69 1255.77 2114.83 1200.9C2110.55 1178.48 2109.08 1155.46 2110.15 1132.5C2113.28 1224.12 2153.99 1307.37 2221.6 1343.76C2226.52 1346.41 2231.49 1348.77 2236.52 1350.84Z" fill="#371A45"/>
<path d="M2317.54 854.197C2316.23 854.197 2314.91 854.21 2313.59 854.263C2224.94 857.677 2150.3 970.343 2147.19 1105.41C2145.31 1187.2 2170.58 1262 2214.76 1305.5C2239.79 1330.14 2269.15 1342.64 2299.52 1341.37C2388.18 1337.97 2462.83 1225.3 2465.92 1090.24C2467.8 1008.45 2442.54 933.637 2398.35 890.13C2374.42 866.57 2346.55 854.197 2317.54 854.197ZM2295.44 1388.64C2253.87 1388.64 2214.64 1371.6 2181.67 1339.13C2128.38 1286.66 2097.86 1198.89 2100.03 1104.33C2103.68 944.81 2198.68 811.477 2311.78 807.13C2355.58 805.463 2396.92 822.517 2431.44 856.517C2484.74 908.983 2515.26 996.757 2513.08 1091.32C2509.43 1250.84 2414.44 1384.16 2301.34 1388.52C2299.38 1388.6 2297.4 1388.64 2295.44 1388.64Z" fill="#371A45"/>
<path d="M703.522 1248.89C608.774 1151.6 558.51 1044.28 565.683 899.491C566.428 885.211 567.731 870.517 569.552 855.477C569.959 852.01 570.442 848.584 570.98 845.144L571.04 844.93C576.9 814.717 586.119 775.304 600.282 731.677C642.919 600.077 730.175 430.17 904.802 358.677C1005.07 317.624 1102.28 303.037 1188.4 303.037C1382.75 303.037 1520.64 377.304 1509.83 389.331C1509.83 389.331 1509.43 389.317 1508.65 389.317C1484.03 389.317 1079.39 392.624 837.335 608.144C837.082 608.384 836.815 608.611 836.548 608.851C784.042 655.691 745.282 715.677 723.908 782.184C695.628 870.144 689.202 934.797 685.775 991.917C675.415 1165.66 703.522 1248.89 703.522 1248.89Z" fill="#9B8DA2"/>
<path d="M1804.84 976.424C1745.43 976.424 1690.26 928.13 1675.91 859.357C1659.8 782.104 1701.28 708.237 1768.59 694.397C1775.98 692.877 1783.36 692.144 1790.68 692.144C1850.1 692.144 1905.27 740.437 1919.62 809.21C1935.74 886.477 1894.24 960.33 1826.95 974.17C1819.56 975.69 1812.18 976.424 1804.84 976.424Z" fill="#9B8DA2"/>
<path d="M1818.05 1130.78C1810.68 1123.48 1804.83 1113.98 1801.52 1102.94C1792.15 1071.72 1806.61 1039.92 1833.83 1031.9C1838.07 1030.66 1842.36 1030.06 1846.63 1030.06C1857.25 1030.06 1867.72 1033.76 1876.69 1040.3C1858.69 1071.85 1839.08 1102.06 1818.05 1130.78Z" fill="#9B8DA2"/>
<path d="M1854.93 1146.82C1841.48 1146.82 1828.29 1140.92 1818.05 1130.78C1839.08 1102.06 1858.69 1071.85 1876.69 1040.3C1887.27 1048.02 1895.77 1059.69 1900.04 1073.94C1909.41 1105.17 1894.95 1136.98 1867.73 1144.98C1863.49 1146.24 1859.2 1146.84 1854.93 1146.82Z" fill="#918796"/>
<path d="M2984.96 982.81C3008.37 973.276 3035.36 941.023 3041.59 928.796C3054.43 903.623 3073.03 872.85 3094.21 833.183C3130.53 765.197 3224.68 672.33 3278.79 704.197C3365.13 755.063 3246.55 855.783 3247.65 875.796C3248.77 895.81 3303.36 988.103 3257.67 1090.01L2984.96 982.81Z" fill="white"/>
<path d="M2976.29 961.53C2980.83 959.61 2986.85 955.636 2992.49 950.876C2998.19 946.05 3003.77 940.463 3008.95 934.596C3011.52 931.663 3014.03 928.636 3016.23 925.663C3018.47 922.663 3020.47 919.743 3021.41 917.796C3025.67 909.516 3030.03 901.53 3034.4 893.65L3060.43 847.17L3073.04 824.063C3077.43 815.836 3082.49 807.276 3087.68 799.41C3098.17 783.503 3109.71 768.623 3122.27 754.57C3134.77 740.49 3148.24 727.17 3163.15 714.957C3178.08 702.81 3194.29 691.53 3213.83 683.237C3223.6 679.157 3234.31 675.837 3246.33 674.623C3258.23 673.45 3271.91 674.637 3284.29 680.383C3290.92 683.397 3295.12 686.437 3299.85 689.49C3304.47 693.023 3309.08 696.543 3313.32 701.157C3321.87 709.943 3329.07 721.876 3332.21 734.796C3335.51 747.703 3334.88 760.61 3332.57 771.823C3330.24 783.143 3326.39 793.183 3322.03 802.463C3313.23 820.97 3302.36 836.757 3291.64 851.583L3276.16 872.583C3273.88 875.717 3271.71 879.197 3271.17 880.29C3270.81 880.903 3271.31 880.09 3271.32 879.623C3271.19 879.823 3271.8 877.876 3271.8 876.73C3271.84 876.076 3271.83 875.423 3271.76 874.783C3271.69 874.143 3271.79 874.61 3271.79 874.476L3271.84 874.53C3271.75 874.396 3271.91 874.89 3272.03 875.29L3272.36 876.463C3274.2 882.89 3277.44 891.957 3280.19 900.57C3283.03 909.29 3285.73 918.343 3288.08 927.516C3292.85 945.85 3296.07 964.956 3296.8 984.317C3298.51 1023.02 3288.69 1062.85 3268.15 1094.72C3264.67 1100.1 3257.49 1101.65 3252.11 1098.17C3247.97 1095.52 3246.11 1090.68 3247.01 1086.14L3247.19 1085.32C3250.59 1068.5 3254.37 1052.52 3254.91 1036.13C3255.33 1032.09 3255.37 1028.02 3255.39 1023.97C3255.35 1019.9 3255.73 1015.92 3255.28 1011.85L3254.75 999.757L3253.32 987.703C3251.19 971.663 3247.83 955.716 3243.21 939.796C3240.91 931.823 3238.27 923.93 3235.33 915.85C3232.48 907.61 3229.28 900.103 3226.07 889.49L3225.48 887.476C3225.28 886.81 3225.08 886.25 3224.85 885.01C3224.41 882.85 3224.05 880.677 3223.76 878.503C3223.69 877.81 3223.6 877.73 3223.57 876.543C3223.57 875.356 3223.63 874.143 3223.72 872.943C3223.89 870.703 3224.45 867.61 3224.8 866.783C3225.55 864.236 3226.64 861.263 3227.36 859.93C3230.68 853.023 3233.49 849.09 3236.27 844.943C3241.83 836.89 3247.01 829.837 3252.13 822.85C3262.28 808.983 3271.53 795.263 3278.01 781.65C3284.63 768.117 3287.43 754.85 3285.24 746.343C3284.23 741.97 3282.16 738.103 3278.47 734.076C3276.77 732.036 3274.28 730.17 3271.93 728.21C3269.21 726.423 3266.17 724.29 3264.65 723.65C3257.51 719.89 3245.12 720.823 3231.77 726.45C3218.47 731.89 3204.97 740.783 3192.36 750.943C3167.04 771.423 3144.28 797.157 3126.08 824.637C3121.51 831.61 3117.52 838.33 3113.53 845.77L3100.63 869.437L3074.57 915.943C3070.32 923.583 3066.19 931.197 3062.32 938.716C3059.24 944.703 3056.07 949.05 3053.01 953.183C3049.92 957.33 3046.76 961.157 3043.48 964.903C3036.91 972.343 3029.93 979.37 3022.08 986.037C3014.09 992.61 3005.45 999.01 2993.63 1004.09C2981.96 1009.08 2968.45 1003.68 2963.47 992.023C2958.47 980.357 2963.87 966.863 2975.52 961.863L2975.57 961.837L2976.29 961.53Z" fill="#371A45"/>
<path d="M1408.58 2277.78L1809.7 2602.04L2122.83 2556.54L2288.42 2532.48C2288.42 2532.48 2401.27 2454 2428.4 2434.53C2465.24 2408.21 2436.51 2362.8 2410.72 2340.04C2366.62 2301.05 2329.43 2260.56 2297.27 2220.94C2245.39 2156.97 2206.52 2095.17 2172.34 2045.22C2144.3 2004.22 2092.1 1987.12 2045.36 2004.06C1766.48 2105.41 1484.27 2173.49 1484.27 2173.49L1408.58 2277.78Z" fill="white"/>
<path d="M1436.26 2274.1L1815.54 2580.74L2280.78 2513.12C2300.95 2499.09 2392.76 2435.16 2416.6 2418.09C2424.24 2412.62 2425.46 2407.46 2425.66 2403.57C2426.4 2388.9 2411.98 2368.14 2397.34 2355.21C2295.63 2265.34 2230.83 2168.62 2178.76 2090.92C2170.78 2079 2163.1 2067.54 2155.64 2056.65C2132.7 2023.12 2090.19 2009.33 2052.28 2023.1C1800.27 2114.66 1542.5 2179.96 1496.3 2191.41L1436.26 2274.1ZM1809.68 2622.32C1805.08 2622.32 1800.58 2620.74 1796.95 2617.81L1395.84 2293.5C1387.46 2286.73 1385.86 2274.58 1392.19 2265.85L1467.88 2161.61C1470.71 2157.72 1474.83 2154.96 1479.51 2153.82C1482.32 2153.14 1763.9 2084.78 2038.46 1985.04C2093.75 1964.96 2155.68 1985 2189.07 2033.78C2196.59 2044.77 2204.35 2056.34 2212.4 2068.37C2263.19 2144.14 2326.38 2238.45 2424.16 2324.86C2445.47 2343.69 2467.68 2374.81 2466.11 2405.65C2465.16 2423.86 2456.2 2439.57 2440.18 2451.04C2413.26 2470.3 2304.6 2545.89 2299.99 2549.1C2297.42 2550.89 2294.44 2552.06 2291.34 2552.52L1812.6 2622.1C1811.63 2622.24 1810.66 2622.32 1809.68 2622.32Z" fill="#371A45"/>
<path d="M2350.38 2464.6C2348.28 2446.34 2339.6 2429.42 2325.12 2416.2C2235.79 2334.57 2161.1 2249.96 2113.71 2192.76C2150.78 2218.97 2192.9 2260.5 2209.35 2262.48C2211.87 2279.74 2219.14 2298.94 2234.86 2318.4C2240.38 2325.24 2246.94 2332.1 2254.68 2338.93C2258.51 2342.29 2262.88 2345.18 2267.75 2347.61C2280.35 2353.9 2296.26 2357.04 2314.63 2357.04C2334.34 2357.04 2356.88 2353.42 2381.14 2346.18C2382.66 2345.73 2384.18 2345.26 2385.72 2344.77C2389.54 2348.26 2393.42 2351.74 2397.34 2355.21C2411.98 2368.14 2426.4 2388.9 2425.66 2403.57C2425.46 2407.46 2424.24 2412.62 2416.6 2418.09C2405.11 2426.32 2377.83 2445.44 2350.38 2464.6Z" fill="#C3BAC7"/>
<path d="M2349.04 2490.24C2349.21 2489.44 2349.37 2488.62 2349.52 2487.8C2350.99 2479.96 2351.24 2472.16 2350.37 2464.6C2377.83 2445.44 2405.11 2426.32 2416.6 2418.09C2424.24 2412.62 2425.45 2407.46 2425.65 2403.57C2426.4 2388.9 2411.97 2368.14 2397.33 2355.21C2393.41 2351.74 2389.53 2348.26 2385.72 2344.77C2392.84 2342.53 2400.09 2340 2407.47 2337.14C2408.55 2338.12 2409.63 2339.08 2410.72 2340.04C2416.8 2345.44 2423.08 2352.04 2428.61 2359.38C2446.43 2383.16 2456.53 2414.45 2428.4 2434.53C2414.95 2444.18 2380.43 2468.33 2349.04 2490.24Z" fill="#371A45"/>
<path d="M2728.93 1747.85C2757.58 1769.73 2773.68 1806.18 2769.2 1838.73C2712.71 2248.69 2341.88 2415.62 2254.71 2338.93C2174.78 2268.62 2222.26 2194.25 2222.26 2194.25C2222.26 2194.25 2509.83 2116.12 2610.31 1764.62C2623.32 1719.09 2675.36 1706.93 2717.9 1739.42L2728.93 1747.85Z" fill="white"/>
<path d="M2267.74 2347.61C2262.88 2345.18 2258.5 2342.29 2254.68 2338.93C2246.93 2332.1 2240.37 2325.24 2234.85 2318.4C2240.37 2325.24 2246.93 2332.1 2254.7 2338.93C2258.52 2342.29 2262.89 2345.18 2267.74 2347.61Z" fill="#998AA0"/>
<path d="M2428.12 2328.49C2485.8 2302.45 2548.7 2258.6 2604.97 2196.94V2196.96C2548.69 2258.61 2485.8 2302.45 2428.12 2328.49Z" fill="#C3BAC7"/>
<path d="M2604.96 2196.96V2196.94C2650.15 2147.45 2691.08 2086.44 2721.6 2014C2691.07 2086.46 2650.15 2147.45 2604.96 2196.96Z" fill="#C3BAC7"/>
<path d="M2407.47 2337.14C2414.27 2334.52 2421.14 2331.64 2428.12 2328.49C2421.15 2331.64 2414.26 2334.53 2407.47 2337.14Z" fill="#371A45"/>
<path d="M2385.72 2344.77C2392.83 2342.54 2400.11 2340 2407.47 2337.14C2400.09 2340 2392.84 2342.53 2385.72 2344.77Z" fill="#371A45"/>
<path d="M2730.09 1748.74C2729.7 1748.45 2729.32 1748.14 2728.93 1747.85L2717.89 1739.42C2704.32 1729.05 2689.78 1723.24 2675.85 1721.6C2689.78 1723.21 2704.33 1729.04 2717.92 1739.42L2728.92 1747.84C2729.3 1748.14 2729.7 1748.45 2730.09 1748.74Z" fill="#371A45"/>
<path d="M2314.63 2357.04C2296.28 2357.04 2280.35 2353.89 2267.75 2347.61C2262.9 2345.18 2258.52 2342.29 2254.71 2338.93C2246.94 2332.1 2240.38 2325.24 2234.86 2318.4C2230.3 2312.74 2226.46 2307.1 2223.24 2301.52C2225.48 2301.62 2227.74 2301.66 2230.06 2301.66C2366.31 2301.65 2637.04 2128.77 2684.62 1783.34C2687.44 1762.58 2681.95 1740.26 2670.15 1721.17C2672.03 1721.22 2673.94 1721.37 2675.86 1721.6C2689.79 1723.24 2704.32 1729.05 2717.9 1739.42L2728.94 1747.85C2729.32 1748.14 2729.71 1748.45 2730.1 1748.74C2758.03 1770.76 2773.6 1806.62 2769.2 1838.72C2760.32 1903.14 2743.68 1961.57 2721.6 2014C2691.08 2086.44 2650.15 2147.45 2604.96 2196.94C2548.7 2258.6 2485.8 2302.45 2428.12 2328.49C2421.14 2331.64 2414.27 2334.52 2407.47 2337.14C2400.11 2340 2392.83 2342.54 2385.72 2344.77C2384.18 2345.26 2382.66 2345.73 2381.14 2346.18C2356.88 2353.41 2334.34 2357.04 2314.63 2357.04Z" fill="#C3BAC7"/>
<path d="M2238.09 2213.41C2230.37 2230.69 2217.91 2275.96 2269.88 2321.68C2290.35 2339.69 2339.45 2337.97 2395 2317.3C2544.56 2261.65 2711.23 2091.13 2746.44 1835.58C2749.77 1811.37 2736.85 1782.8 2715 1766.1H2714.99L2703.96 1757.68C2688.04 1745.52 2669.75 1741.16 2655.07 1746.04C2643.83 1749.76 2636 1758.37 2632.4 1770.93C2538.88 2098.12 2291.43 2195.86 2238.09 2213.41ZM2314.65 2380.1C2283.44 2380.1 2257.64 2372.12 2239.53 2356.17C2164.61 2290.28 2182.8 2213.36 2202.88 2181.89L2207.65 2174.41L2216.23 2172.08C2218.93 2171.33 2492.75 2092.32 2588.23 1758.3C2595.96 1731.26 2615.05 1710.89 2640.61 1702.42C2669.73 1692.78 2703.84 1699.77 2731.84 1721.17L2742.88 1729.6C2777.81 1756.28 2797.53 1801.4 2791.96 1841.86C2754.16 2116.2 2573.39 2299.96 2411.01 2360.37C2375.63 2373.54 2342.92 2380.1 2314.65 2380.1Z" fill="#371A45"/>
<path d="M1750.92 2550.64C1777.69 2582.82 1807.21 2625.52 1807.21 2625.52C1807.21 2625.52 1877.63 2577.56 1882.91 2573.16C1900.41 2558.6 1883.49 2509.4 1845.12 2463.28C1806.75 2417.16 1761.45 2391.57 1743.95 2406.13C1731.15 2416.78 1674.19 2454.7 1674.19 2454.7C1674.19 2454.7 1740.63 2538.28 1750.92 2550.64Z" fill="white"/>
<path d="M1699.44 2574.45C1737.81 2620.57 1787.8 2642.25 1811.11 2622.86C1834.4 2603.48 1822.19 2550.37 1783.81 2504.25C1745.44 2458.13 1695.44 2436.45 1672.15 2455.84C1648.84 2475.22 1661.07 2528.33 1699.44 2574.45Z" fill="white"/>
<path d="M1421.24 2297.73C1452.59 2331.32 1502.21 2384.86 1555.92 2439.32C1632.77 2517.22 1717.85 2596.93 1769.19 2622.24C1858.49 2666.25 2124.15 2596.97 2288.47 2532.45C2331.59 2515.53 2345.68 2462.41 2311.45 2431.13C2255.47 2379.96 2205.29 2327.8 2163.65 2281.52C2124.21 2237.72 2092.41 2199.22 2070.56 2171.72C2050.52 2146.48 2016.19 2137.72 1986.4 2149.98C1727.57 2256.81 1526.24 2266.04 1436.76 2263.28C1418.57 2262.72 1408.8 2284.37 1421.24 2297.73Z" fill="white"/>
<path d="M1851.39 2615.77C1870.71 2602.5 1890.52 2588.78 1893.71 2586.13C1899.91 2580.97 1908.16 2570.02 1906.4 2548.94C1939.87 2547.72 1971.87 2540.96 2001 2526.9C2136.6 2461.3 2164.04 2370.09 2166.92 2315.22C2205 2356.57 2249.27 2401.76 2297.79 2446.09C2311.39 2458.52 2311.1 2472.93 2309.71 2480.42C2306.95 2495.24 2296.26 2507.65 2281.07 2513.61C2138.52 2569.56 1959.39 2615.26 1851.39 2615.77ZM1666.51 2518.25C1664.82 2516.7 1663.12 2515.16 1661.42 2513.6C1657.3 2503.33 1654.42 2493.33 1652.86 2483.98C1649.06 2461.02 1653.18 2442.12 1666.07 2433.41C1668.08 2432.06 1670.22 2431.01 1672.47 2430.22C1680.03 2426.16 1696.32 2417.4 1711.31 2409.06C1694.99 2420.45 1674.62 2434.16 1664.84 2440.66C1660.91 2443.28 1658.26 2447.42 1657.52 2452.09C1656.79 2456.76 1658.04 2461.52 1660.98 2465.21C1661.24 2465.54 1662.08 2466.6 1663.38 2468.24C1658.35 2480.98 1659.64 2498.74 1666.51 2518.25Z" fill="#C3BAC7"/>
<path d="M1436.16 2283.5L1443.64 2292.05C1519.48 2373.46 1697.12 2564.09 1778.15 2604.04C1852.79 2640.82 2097.31 2585.74 2281.07 2513.61C2296.25 2507.65 2306.95 2495.24 2309.71 2480.42C2311.09 2472.93 2311.39 2458.52 2297.79 2446.09C2186.64 2344.53 2097.77 2238.5 2054.71 2184.33C2040.39 2166.33 2015.47 2159.89 1994.11 2168.73C1735.19 2275.54 1533.37 2286.44 1436.16 2283.5ZM1851.68 2656.34C1814.52 2656.34 1782.93 2651.54 1760.24 2640.36C1672.55 2597.13 1497.92 2409.73 1414 2319.66L1406.41 2311.52C1395.15 2299.44 1392.28 2281.93 1399.09 2266.9C1405.89 2251.89 1421 2242.5 1437.41 2243.02C1531.44 2245.94 1726.72 2235.24 1978.65 2131.28C2016.61 2115.62 2060.92 2127.08 2086.4 2159.13C2128.73 2212.34 2216.03 2316.52 2325.12 2416.2C2345.59 2434.9 2354.49 2461.01 2349.52 2487.8C2344.21 2516.46 2324.16 2540.21 2295.85 2551.32C2171.8 2600.01 1979.04 2656.34 1851.68 2656.34Z" fill="#371A45"/>
<path d="M1750.92 2550.64C1777.69 2582.82 1807.21 2625.52 1807.21 2625.52C1807.21 2625.52 1877.63 2577.56 1882.91 2573.16C1900.41 2558.6 1883.49 2509.4 1845.12 2463.28C1806.75 2417.16 1761.45 2391.57 1743.95 2406.13C1731.15 2416.78 1674.19 2454.7 1674.19 2454.7C1674.19 2454.7 1740.63 2538.28 1750.92 2550.64Z" fill="#22A7F0"/>
<path d="M1732.46 2460.46C1728.12 2458.06 1723.82 2456.01 1719.62 2454.33C1719.64 2454.34 1719.64 2454.36 1719.65 2454.37C1716.32 2453.02 1713.04 2451.92 1709.85 2451.05C1726.93 2439.44 1747.18 2425.38 1754.62 2419.18C1755.22 2418.89 1756.06 2418.73 1757.1 2418.73C1762.02 2418.73 1771.6 2422.2 1783.77 2429.96C1783.26 2429.94 1782.77 2429.93 1782.28 2429.93C1777.17 2429.93 1772.84 2431.25 1769.52 2434.02C1763.46 2439.04 1747.57 2450.14 1732.46 2460.46Z" fill="#D3EDFC"/>
<path d="M1822.91 2594.36C1823.35 2578.01 1817.49 2557.69 1806.13 2536.89C1818.81 2528.13 1829.4 2520.74 1831.35 2519.14C1840.2 2511.78 1840.21 2495.49 1833.08 2475.2C1868.55 2518.28 1876.49 2554.3 1872.19 2560.12C1869.23 2562.49 1847.53 2577.49 1822.91 2594.36Z" fill="#287CBC"/>
<path d="M1698.81 2458.53C1718.25 2482.96 1756.43 2530.88 1763.9 2539.85C1781.71 2561.25 1800.43 2586.82 1811.43 2602.21C1840.46 2582.38 1868.78 2562.85 1872.19 2560.12C1876.53 2554.25 1868.41 2517.65 1832.15 2474.08C1795.9 2430.5 1761.37 2415.86 1754.63 2419.18C1745.49 2426.81 1716.98 2446.28 1698.81 2458.53ZM1807.23 2642.4C1801.87 2642.41 1796.61 2639.86 1793.34 2635.12C1793.05 2634.69 1763.93 2592.65 1737.95 2561.44C1727.66 2549.06 1663.7 2468.62 1660.98 2465.21C1658.05 2461.52 1656.79 2456.76 1657.53 2452.09C1658.26 2447.42 1660.91 2443.28 1664.85 2440.66C1680.47 2430.25 1723.23 2401.42 1733.17 2393.16C1763.85 2367.62 1819.43 2406.01 1858.1 2452.49C1877.94 2476.33 1893.15 2501.92 1900.94 2524.57C1913.86 2562.16 1901.95 2579.26 1893.71 2586.13C1888.23 2590.69 1833.39 2628.1 1816.73 2639.46C1813.82 2641.45 1810.51 2642.4 1807.23 2642.4Z" fill="#371A45"/>
<path d="M1699.44 2574.45C1737.81 2620.57 1787.8 2642.25 1811.11 2622.86C1834.4 2603.48 1822.19 2550.37 1783.81 2504.25C1745.44 2458.13 1695.44 2436.45 1672.15 2455.84C1648.84 2475.22 1661.07 2528.33 1699.44 2574.45Z" fill="#22A7F0"/>
<path d="M1801.44 2528.73C1801.42 2528.69 1801.38 2528.66 1801.35 2528.62C1799.79 2526.09 1798.15 2523.56 1796.44 2521.02C1798.19 2523.58 1799.86 2526.16 1801.44 2528.73ZM1775.92 2495.28C1775.87 2495.2 1775.79 2495.13 1775.74 2495.06C1775.8 2495.13 1775.86 2495.2 1775.92 2495.28Z" fill="#D3EDFC"/>
<path d="M1719.67 2454.37C1716.32 2453.04 1713.04 2451.92 1709.84 2451.05C1709.84 2451.05 1709.84 2451.05 1709.86 2451.05C1713.04 2451.92 1716.32 2453.02 1719.66 2454.37C1719.66 2454.37 1719.66 2454.37 1719.67 2454.37Z" fill="#F6FBFE"/>
<path d="M1709.84 2451.05C1704.24 2449.53 1698.87 2448.74 1693.88 2448.74C1691.42 2448.74 1689.06 2448.93 1686.79 2449.32C1689.06 2448.93 1691.43 2448.73 1693.88 2448.73C1698.88 2448.73 1704.24 2449.53 1709.86 2451.05C1709.84 2451.05 1709.84 2451.05 1709.84 2451.05Z" fill="#D7D1DA"/>
<path d="M1704.53 2580.29C1702.83 2578.38 1701.13 2576.44 1699.45 2574.44C1661.07 2528.32 1648.87 2475.21 1672.16 2455.85C1676.28 2452.42 1681.21 2450.28 1686.79 2449.32C1689.05 2448.93 1691.41 2448.74 1693.88 2448.74C1698.87 2448.74 1704.24 2449.53 1709.84 2451.05C1713.04 2451.92 1716.32 2453.04 1719.67 2454.37C1720.75 2455.62 1721.83 2456.86 1722.87 2458.14C1730.64 2467.49 1737.33 2477.13 1742.88 2486.72C1734.41 2483.53 1726.36 2481.85 1719.07 2481.85C1710.57 2481.85 1703.13 2484.13 1697.35 2488.96C1678.81 2504.42 1682.8 2541.38 1704.69 2579.05C1704.07 2578.81 1703.44 2578.57 1702.8 2578.32C1703.37 2578.98 1703.95 2579.64 1704.53 2580.29Z" fill="#D3EDFC"/>
<path d="M1806.13 2536.89C1804.63 2534.13 1803.03 2531.37 1801.33 2528.61C1801.33 2528.62 1801.33 2528.62 1801.35 2528.62C1803.03 2531.38 1804.63 2534.14 1806.13 2536.89ZM1796.44 2521.02C1795.71 2519.94 1794.96 2518.88 1794.2 2517.8C1792.67 2515.61 1791.05 2513.42 1789.4 2511.26C1787.61 2508.92 1785.76 2506.58 1783.84 2504.26C1788.41 2509.77 1792.61 2515.38 1796.44 2521.02ZM1775.56 2494.88C1761.73 2480.09 1746.83 2468.4 1732.45 2460.48C1732.45 2460.46 1732.47 2460.46 1732.47 2460.46C1746.84 2468.38 1761.72 2480.09 1775.56 2494.88Z" fill="#287CBC"/>
<path d="M1732.45 2460.48C1728.12 2458.09 1723.84 2456.05 1719.65 2454.37C1719.64 2454.36 1719.64 2454.34 1719.62 2454.33C1723.83 2456.01 1728.12 2458.06 1732.46 2460.46C1732.46 2460.46 1732.45 2460.46 1732.45 2460.48Z" fill="#A4ADC5"/>
<path d="M1822.89 2594.37C1823.35 2578.01 1817.49 2557.68 1806.13 2536.89C1817.49 2557.69 1823.35 2578.01 1822.91 2594.36C1822.91 2594.37 1822.89 2594.37 1822.89 2594.37Z" fill="#2D5E98"/>
<path d="M1812.94 2621.2C1819.36 2614.84 1822.59 2605.52 1822.9 2594.37C1822.9 2594.37 1822.91 2594.37 1822.91 2594.36C1822.6 2605.52 1819.36 2614.84 1812.94 2621.2Z" fill="#371A45"/>
<path d="M1789.37 2629.94C1765.14 2629.94 1732.33 2611.44 1704.53 2580.29C1705.38 2581.24 1706.24 2582.17 1707.1 2583.09C1706.28 2581.74 1705.48 2580.4 1704.69 2579.05C1713.13 2582.2 1721.16 2583.85 1728.41 2583.85C1736.9 2583.85 1744.33 2581.58 1750.09 2576.76C1768.72 2561.29 1764.7 2524.42 1742.88 2486.72C1761.7 2493.8 1782.53 2508.34 1801.33 2528.61C1803.02 2531.37 1804.62 2534.13 1806.13 2536.89C1817.49 2557.68 1823.34 2578.01 1822.89 2594.37C1822.58 2605.52 1819.36 2614.84 1812.93 2621.2C1812.36 2621.77 1811.74 2622.32 1811.12 2622.85C1805.32 2627.66 1797.88 2629.94 1789.37 2629.94ZM1794.2 2517.8C1792.65 2515.61 1791.05 2513.44 1789.4 2511.26C1791.05 2513.42 1792.66 2515.61 1794.2 2517.8Z" fill="#287CBC"/>
<path d="M1801.35 2528.62C1801.33 2528.62 1801.33 2528.62 1801.33 2528.61C1799.12 2525.01 1796.75 2521.4 1794.2 2517.8C1794.96 2518.88 1795.71 2519.94 1796.44 2521.02C1798.15 2523.56 1799.79 2526.09 1801.35 2528.62ZM1789.4 2511.26C1787.6 2508.9 1785.75 2506.57 1783.81 2504.25C1767.79 2485 1749.73 2470 1732.45 2460.48C1746.83 2468.4 1761.73 2480.09 1775.56 2494.88C1775.56 2494.88 1775.57 2494.89 1775.57 2494.9C1775.63 2494.96 1775.68 2495.01 1775.73 2495.06C1775.79 2495.13 1775.87 2495.2 1775.92 2495.28C1775.93 2495.28 1775.93 2495.28 1775.93 2495.28C1778.61 2498.16 1781.25 2501.16 1783.84 2504.26C1785.76 2506.58 1787.61 2508.92 1789.4 2511.26Z" fill="#A4ADC5"/>
<path d="M1732.46 2460.48C1728.12 2458.09 1723.86 2456.05 1719.67 2454.37C1719.66 2454.37 1719.66 2454.37 1719.66 2454.37C1723.84 2456.05 1728.12 2458.09 1732.46 2460.48Z" fill="#BCB7C6"/>
<path d="M1707.11 2583.09C1706.24 2582.17 1705.39 2581.24 1704.54 2580.29C1703.95 2579.64 1703.38 2578.98 1702.8 2578.32C1703.44 2578.57 1704.07 2578.81 1704.7 2579.05C1705.48 2580.4 1706.28 2581.74 1707.11 2583.09ZM1801.34 2528.61C1782.54 2508.34 1761.71 2493.8 1742.88 2486.72C1737.34 2477.13 1730.64 2467.49 1722.87 2458.14C1721.83 2456.86 1720.75 2455.62 1719.67 2454.37C1723.86 2456.05 1728.12 2458.09 1732.46 2460.48C1749.74 2470 1767.79 2485 1783.82 2504.25C1785.75 2506.57 1787.6 2508.9 1789.4 2511.26C1791.06 2513.44 1792.66 2515.61 1794.2 2517.8C1796.75 2521.4 1799.12 2525.01 1801.34 2528.61Z" fill="#A4ADC5"/>
<path d="M1693.81 2465.68C1689.15 2465.68 1685.43 2466.74 1682.94 2468.81C1671.03 2478.72 1676.59 2520.6 1712.42 2563.65C1748.25 2606.72 1788.39 2619.81 1800.31 2609.89C1812.23 2599.98 1806.67 2558.1 1770.85 2515.05C1742.5 2480.98 1711.45 2465.68 1693.81 2465.68ZM1789.34 2646.88C1758.23 2646.88 1719.17 2624.54 1686.47 2585.25C1640.71 2530.25 1629.91 2469.04 1661.35 2442.86C1692.81 2416.7 1751.03 2438.46 1796.79 2493.46C1842.55 2548.46 1853.35 2609.68 1821.9 2635.84C1812.93 2643.3 1801.77 2646.88 1789.34 2646.88Z" fill="#371A45"/>
<path d="M2094.16 2611.12C2090.16 2611.12 2086.16 2609.54 2083.19 2606.42L1963.96 2481.68C1942.04 2458.74 1939.12 2423.06 1957.02 2396.88C1966.07 2383.64 1965.63 2366.17 1955.94 2353.41L1844.47 2206.58C1839.4 2199.9 1840.71 2190.37 1847.39 2185.3C1854.06 2180.24 1863.6 2181.54 1868.67 2188.21L1980.14 2335.04C1997.74 2358.22 1998.54 2389.97 1982.11 2414.01C1972.26 2428.42 1973.87 2448.06 1985.92 2460.69L2105.15 2585.44C2110.94 2591.5 2110.72 2601.1 2104.66 2606.92C2101.71 2609.72 2097.94 2611.12 2094.16 2611.12Z" fill="#371A45"/>
<path d="M2886.9 2608.94C2875.47 2608.94 2865.56 2600.42 2864.12 2588.8C2862.56 2576.2 2871.51 2564.73 2884.1 2563.17C2921.5 2558.56 3000.02 2519.44 3051.54 2434.16C3095.47 2361.48 3131.94 2232.68 3056.23 2031.92C3051.75 2020.05 3057.74 2006.8 3069.62 2002.32C3081.48 1997.86 3094.74 2003.84 3099.22 2015.7C3181.43 2233.72 3140.06 2376.52 3090.86 2457.93C3030.5 2557.81 2937.51 2602.86 2889.74 2608.77C2888.79 2608.89 2887.83 2608.94 2886.9 2608.94Z" fill="#371A45"/>
<path d="M2945.92 1628.12C2943.08 1628.12 2940.21 1627.6 2937.43 1626.49C2808.09 1574.98 2723.92 1467.98 2693.97 1317.06C2671.76 1205.05 2687.07 1109.28 2687.73 1105.25C2689.8 1092.73 2701.65 1084.28 2714.13 1086.32C2726.65 1088.37 2735.12 1100.18 2733.07 1112.7C2732.88 1113.88 2718.43 1205.54 2739.31 1309.42C2766.65 1445.53 2839.04 1537.85 2954.43 1583.8C2966.21 1588.49 2971.96 1601.85 2967.27 1613.64C2963.68 1622.64 2955.04 1628.12 2945.92 1628.12Z" fill="#371A45"/>
<path d="M2071.34 2056.7C2068.18 2052.85 2029.06 2108.9 1995.08 2129.68C1977.44 2140.46 2056.48 2174.28 2049.4 2149.88C2040.95 2120.72 2074.48 2060.57 2071.34 2056.7Z" fill="#371A45"/>
</svg>
